<?xml version='1.0' encoding='utf-8'?>
<svg xmlns="http://www.w3.org/2000/svg" width="1920" height="1080" viewBox="0 0 1920 1080" data-theme="light">
  <style>
        @font-face {
            font-family: 'Inter';
            src: url('assets/fonts/Inter-Regular.ttf') format('truetype');
            font-weight: 400;
            font-style: normal;
            font-display: swap;
        }
        @font-face {
            font-family: 'Inter';
            src: url('assets/fonts/Inter-Bold.ttf') format('truetype');
            font-weight: 600;
            font-style: normal;
            font-display: swap;
        }
        @font-face {
            font-family: 'Inter';
            src: url('assets/fonts/Inter-Bold.ttf') format('truetype');
            font-weight: 800;
            font-style: normal;
            font-display: swap;
        }
        
:root {
    --background: #f8fafc;
    --panel: #ffffff;
    --primary-text: #0f172a;
    --muted-text: #64748b;
    --inverse-text: #ffffff;
    --border: #e2e8f0;
    --shadow-color: #000000;
    --icon-pad-bg: #1e293b;
    --art-glow: #0891b2;
    --art-glow-opacity: 0.10;
    --art-sheen: #ffffff;
    --art-sheen-opacity: 0.34;
    --art-shadow: #0f172a;
    --art-shadow-opacity: 0.14;
    --art-muted-line: #94a3b8;
    --art-panel-tint: #f1f5f9;
    --font-family: 'Inter', 'Segoe UI', 'Kalam', Roboto, Helvetica, Arial, sans-serif;
    --radius-xl: 16px;
    --font-family-headline: 'Inter', 'Segoe UI', 'Kalam', Roboto, Helvetica, Arial, sans-serif;
    --font-family-body: 'Inter', 'Segoe UI', 'Kalam', Roboto, Helvetica, Arial, sans-serif;
    --font-heading: 'Inter', 'Segoe UI', 'Kalam', Roboto, Helvetica, Arial, sans-serif;
    --font-body: 'Inter', 'Segoe UI', 'Kalam', Roboto, Helvetica, Arial, sans-serif;
    --font-size-h1: 56px;
    --font-size-h2: 40px;
    --font-size-h3: 28px;
    --font-size-body: 24px;
    --font-size-caption: 18px;
    --secondary-text: var(--muted-text);
    --panel-border: var(--border);
    --font-weight-normal: 400;
    --font-weight-medium: 500;
    --font-weight-semibold: 600;
    --font-weight-bold: 700;
    --spacing-gutter-pct: 0.07;
    --spacing-top-pct: 0.15;
    --spacing-bottom-pct: 0.07;
    --spacing-title-y-pct: 0.055;
    --accent-1: #4f46e5;
    --accent-2: #059669;
    --accent-3: #db2777;
    --accent-4: #d97706;
    --accent-5: #0284c7;
    --accent-6: #7c3aed;
    --accent-7: #dc2626;
    --accent-8: #0d9488;
    --accent-9: #ea580c;
    --accent-10: #c026d3;
}
:root[data-theme="dark"] {
    --background: #0f172a;
    --panel: #1e293b;
    --primary-text: #f1f5f9;
    --muted-text: #94a3b8;
    --inverse-text: #0f172a;
    --border: #334155;
    --shadow-color: #000000;
    --icon-pad-bg: #1e293b;
    --art-glow: #7dd3fc;
    --art-glow-opacity: 0.18;
    --art-sheen: #ffffff;
    --art-sheen-opacity: 0.18;
    --art-shadow: #000000;
    --art-shadow-opacity: 0.28;
    --art-muted-line: #64748b;
    --art-panel-tint: #1e293b;
    --accent-1: #a5b4fc;
    --accent-2: #34d399;
    --accent-3: #f472b6;
    --accent-4: #fbbf24;
    --accent-5: #38bdf8;
    --accent-6: #c084fc;
    --accent-7: #f87171;
    --accent-8: #2dd4bf;
    --accent-9: #fb923c;
    --accent-10: #e879f9;
}
:root[data-theme="light"] {
    --background: #f8fafc;
    --panel: #ffffff;
    --primary-text: #0f172a;
    --muted-text: #64748b;
    --inverse-text: #ffffff;
    --border: #e2e8f0;
    --shadow-color: #000000;
    --icon-pad-bg: #1e293b;
    --art-glow: #0891b2;
    --art-glow-opacity: 0.10;
    --art-sheen: #ffffff;
    --art-sheen-opacity: 0.34;
    --art-shadow: #0f172a;
    --art-shadow-opacity: 0.14;
    --art-muted-line: #94a3b8;
    --art-panel-tint: #f1f5f9;
    --accent-1: #4f46e5;
    --accent-2: #059669;
    --accent-3: #db2777;
    --accent-4: #d97706;
    --accent-5: #0284c7;
    --accent-6: #7c3aed;
    --accent-7: #dc2626;
    --accent-8: #0d9488;
    --accent-9: #ea580c;
    --accent-10: #c026d3;
}</style>
  <rect x="0" y="0" width="1.92E+3" height="1.08E+3" fill="#252a34" stroke="none" id="programmatic_background"/>
  <line id="HEADER_DECOR" x1="960.0" x2="1080.0" y1="135.0" y2="135.0" stroke="var(--accent-1)" stroke-width="6" stroke-linecap="round"/>
  <defs>
    <pattern id="svg47a25688-napkin-hatch" patternUnits="userSpaceOnUse" width="12" height="12">
      <path d="M -3 12 L 12 -3 M 0 15 L 15 0" fill="none" stroke="var(--primary-text)" stroke-width="1" stroke-opacity="0.05"/>
    </pattern>
    <filter id="svg47a25688-shadow" x="-30%" y="-30%" width="160%" height="160%">
      <feDropShadow dx="0" dy="2" stdDeviation="3" flood-color="#000000" flood-opacity="0.08"/>
      <feDropShadow dx="0" dy="6" stdDeviation="10" flood-color="#000000" flood-opacity="0.12"/>
    </filter>
    <marker id="svg47a25688-arrowhead" markerWidth="10" markerHeight="10" refX="9" refY="5" orient="auto">
      <path d="M 0 0 L 10 5 L 0 10 Z" fill="var(--accent-1)"/>
    </marker>
    <filter id="svg47a25688-text-glow" x="-20%" y="-20%" width="140%" height="140%">
      <feDropShadow dx="0" dy="0" stdDeviation="2" flood-color="#000000" flood-opacity="0.4"/>
    </filter>
    <radialGradient id="svg47a25688-universal-edge-vignette" cx="50%" cy="50%" r="72%">
      <stop offset="0%" stop-color="var(--background)" stop-opacity="0"/>
      <stop offset="72%" stop-color="var(--background)" stop-opacity="0.12"/>
      <stop offset="100%" stop-color="var(--primary-text)" stop-opacity="0.08"/>
    </radialGradient>
    <linearGradient id="svg47a25688-universal-surface-sheen" x1="0%" y1="0%" x2="100%" y2="100%">
      <stop offset="0%" stop-color="var(--art-sheen)" stop-opacity="var(--art-sheen-opacity)"/>
      <stop offset="46%" stop-color="var(--art-sheen)" stop-opacity="0.035"/>
      <stop offset="100%" stop-color="var(--art-panel-tint)" stop-opacity="0.14"/>
    </linearGradient>
    <radialGradient id="svg47a25688-universal-icon-aura" cx="50%" cy="42%" r="64%">
      <stop offset="0%" stop-color="var(--art-glow)" stop-opacity="var(--art-glow-opacity)"/>
      <stop offset="100%" stop-color="var(--background)" stop-opacity="0"/>
    </radialGradient>
  </defs>
  <rect width="100%" height="100%" fill="var(--background)" id="CANVAS_BG"/>
  <rect width="100%" height="100%" fill="url(#svg47a25688-napkin-hatch)"/>
  <rect id="UNIVERSAL_EDGE_VIGNETTE" width="100%" height="100%" fill="url(#svg47a25688-universal-edge-vignette)" opacity="0.62"/>
  <text id="TITLE" x="960.0" y="59" text-anchor="middle" font-weight="700" font-size="72" fill="#0f172a" style="font-size: 60px; font-family: Inter, Segoe UI, Kalam, Roboto, Helvetica, Arial, sans-serif; font-weight: 700; letter-spacing:-1.2px;" data-final-font-size="60">
    <tspan x="960.0" dy="68.00px">Misidentification Risks in Algeria</tspan>
  </text>
  <rect id="TITLE_FRAME" x="134" y="59" width="1652" height="103" fill="none"/>
  <g id="DIAGRAM_SCALER" transform="translate(28.8, 27.0) scale(0.97)">
    <path d="M 960 360 L 960 450" stroke="var(--muted-text)" stroke-width="3.0" fill="none" opacity="0.52"/>
    <path d="M 210.0 450 L 1710.0 450" stroke="var(--muted-text)" stroke-width="3.0" fill="none" opacity="0.52"/>
    <path d="M 210.0 450 L 210.0 570" stroke="var(--muted-text)" stroke-width="3.0" fill="none" opacity="0.52"/>
    <path d="M 693.3 450 L 693.3 570" stroke="var(--muted-text)" stroke-width="3.0" fill="none" opacity="0.52"/>
    <path d="M 1226.7 450 L 1226.7 570" stroke="var(--muted-text)" stroke-width="3.0" fill="none" opacity="0.52"/>
    <path d="M 1710.0 450 L 1710.0 570" stroke="var(--muted-text)" stroke-width="3.0" fill="none" opacity="0.52"/>
    <g transform="translate(960.0, 270.0)">
      <rect id="ITEM_1_BG" x="-210" y="-90" width="420" height="180" rx="24" fill="var(--panel)" fill-opacity="0.86" stroke="var(--primary-text)" stroke-width="2.6"/>
      <circle id="ITEM_1_PAD" cx="0" cy="40" r="42" fill="var(--icon-pad-bg)" stroke="var(--primary-text)" opacity="0.9" fill-opacity="0.9" stroke-width="2"/>
      <circle id="ITEM_1_PAD_INNER" cx="0" cy="40" r="32.76" fill="var(--accent-5)" fill-opacity="0.22"/>
      <circle cx="0" cy="40" r="33.6" fill="none" stroke="var(--accent-1)" stroke-width="3" stroke-dasharray="6 4"/>
      <g id="ITEM_1_ICON" transform="translate(-36.0, 4.0)" data-icon-size="72">
        <g transform="translate(-3.3559322033898296,-3.050847457627119) scale(0.15254237288135594)" vector-effect="non-scaling-stroke" fill="#f1f5f9" fill-opacity="1.0" stroke="none">
          <path fill="#f1f5f9" d="M76.28 21.688c-26.378 9.306-43.39 25.92-51.374 49.53c33.78 22.83 81.775 69.988 100.875 114.813c7.62 17.88 13.92 38.086 17.97 59.126c5.308-2.97 33.706 40.776 25.5 33.156c-1.905-1.766-22.602-12.653-22.125-5.53c1.39 20.77 2.154 36.28-1.22 56.28c-8.794 52.14-56.968 122.188-56.968 122.188c22.368 21.103 35.882 27.827 74.876 35.78l77-100.405c28.983 22.87 5.424 64 28.218 62.47c21.462-1.442 2.15-41.235 18.44-61.845c16.95 22.598 36.356 41.26 55.717 57.125c2.09 2.124 1.477-61.477 5.75-47.594c4.162 13.52 13.724 52.06 18.47 65.25c12.987 13.292 22.495 24.418 38.437 27.595c36.918 7.356 33.552-2.188 69.28-22.094c0 0-62.02-74.034-76.468-118.874c-14.824-46.01-21.362-98.512-7.5-144.812c15.787-52.74 97.78-133.094 97.78-133.094c-4.763-5.607-8.447-9.992-11.686-13.688c-3.5-3.993-35.27 15.448-38.594 12.438c-3.296-2.988 21.852-28.457 17.094-31.75c-5.434-3.76-12.353-8.134-21.97-14.063c-32.09 39.05-59.294 63.115-112.624 96.376c-4.038-23.52-1.745-37.2-19.344-53.938c-17.6-16.74-55.628-29.337-89.187-.594c-14.822 12.696-11.758 33.168-19.47 51.532c-24.79-42.81-90.31-87.444-116.874-95.374zM273.157 141.03c3.632 9.382 1.912 19.278-1.5 28.626s-8.772 18.586-14.625 27.375c-3.624 5.446-7.432 10.64-11.155 15.595c10.79-3.762 22.226-7.236 33.5-2.594l10.688 4.407l-6.875 9.282c-3.87 5.213-7.125 9.803-9.97 14c3.6-1.794 7.416-3.395 11.532-4.564c3.455-.98 9.48 1.043 11.625 4s2.316 5.218 2.53 7.28c.432 4.128.016 8.136-.53 12.69c-1.093 9.104-3.05 19.868-3.5 26.062l-17.97-1.313c.597-8.223 2.62-18.754 3.595-26.875c.026-.218.007-.254.03-.47c-8.836 4.995-18.517 12.7-30.56 17.75L224.437 283l14.343-23.688c5.164-8.52 10.192-17.848 19.22-31.218c-3.025.674-6.163 1.506-9.344 2.625c-5.286 1.858-10.545 4.006-15.094 5.843s-7.876 3.33-11.78 4.156l-21.032 4.468l11.594-18.125c5.86-9.155 18.906-23.762 29.72-40c5.405-8.12 10.077-16.445 12.686-23.594s2.883-12.69 1.625-15.94l16.78-6.5z" vector-effect="non-scaling-stroke" stroke="none"/>
        </g>
      </g>
      <text id="ITEM_1_HEAD" x="0.0" y="-80.0" text-anchor="middle" font-weight="bold" font-size="36" fill="var(--primary-text)" data-bg-id="ITEM_1_BG" fill-opacity="1.0" style="font-size: 30px; font-family: Inter, Segoe UI, Kalam, Roboto, Helvetica, Arial, sans-serif; font-weight: 700; letter-spacing:-0.4px;" data-final-font-size="30">
        <tspan x="0.0" dy="34.80px">Striped Hyenas</tspan>
      </text>
      <rect id="ITEM_1_HEAD_FRAME" x="-180" y="-80" width="360" height="45" fill="none"/>
    </g>
    <g transform="translate(210.0, 720)">
      <rect id="ITEM_2_BG" x="-180.0" y="-150" width="360" height="390" rx="24" fill="var(--accent-6)" fill-opacity="1.0" stroke="var(--accent-1)" stroke-width="2.6"/>
      <text id="ITEM_2_HEAD" x="0.0" y="8.0" text-anchor="middle" font-weight="bold" font-size="30" fill="var(--inverse-text)" data-bg-id="ITEM_2_BG" fill-opacity="1.0" style="font-size: 30px; font-family: Inter, Segoe UI, Kalam, Roboto, Helvetica, Arial, sans-serif; font-weight: 700; letter-spacing:-0.4px;" data-final-font-size="30">
        <tspan x="0.0" dy="49.55px">Feral Dogs</tspan>
      </text>
      <rect id="ITEM_2_HEAD_FRAME" x="-150.0" y="8" width="300" height="70" fill="none"/>
      <text id="ITEM_2_BODY" x="0.0" y="82.0" text-anchor="middle" font-size="23" fill="var(--inverse-text)" opacity="0.94" data-bg-id="ITEM_2_BG" data-max-lines="5" style="font-size: 26px; font-family: Inter, Segoe UI, Kalam, Roboto, Helvetica, Arial, sans-serif; font-weight: 400;" data-final-font-size="26">
        <tspan x="0.0" dy="34.33px">Large dogs seen at distance</tspan>
        <tspan x="0.0" dy="29.90px">cause visual confusion</tspan>
      </text>
      <rect id="ITEM_2_BODY_FRAME" x="-174" y="82" width="348" height="108" fill="none"/>
      <circle id="ITEM_2_PAD" cx="0" cy="-45.0" r="62" fill="var(--icon-pad-bg)" stroke="var(--background)" stroke-width="2" stroke-opacity="0.65" opacity="0.94" fill-opacity="0.9"/>
      <circle id="ITEM_2_PAD_INNER" cx="0" cy="-45.0" r="48.36" fill="var(--accent-6)" fill-opacity="0.22"/>
      <circle cx="0" cy="-45.0" r="49.6" fill="none" stroke="var(--accent-1)" stroke-width="3" stroke-dasharray="6 4"/>
      <g id="ITEM_2_ICON" transform="translate(-48.0, -93.0)" data-icon-size="96" stroke-dasharray="6 4">
        <g transform="translate(-7.268571428571428,-12.450000000000003) scale(3.454285714285714)">
          <path d="M3.75 16C3.34 16 3 15.66 3 15.25V15.02C3 14.56 3.37 14.2 3.82 14.2H4.5V15.25C4.5 15.66 4.16 16 3.75 16Z" fill="#F8312F"/>
          <path d="M15.54 21H12.54L14 29.74C14.03 29.89 14.16 30 14.31 30H16.75C16.9 30 17.02 29.86 17 29.71L15.54 21Z" fill="#D3883E"/>
          <path d="M19.95 21H22.95L20.98 29.7597C20.95 29.8999 20.83 30 20.68 30H18.24C18.08 30 17.96 29.8598 18 29.6997L19.95 21Z" fill="#D3883E"/>
          <path d="M19.05 9.72005C19.44 7.01005 21.79 4.94005 24.62 5.00005C27.53 5.06005 29.92 7.43005 30 10.3401C30.0652 12.5738 28.7946 14.5182 26.9279 15.4372C26.9752 15.6906 27 15.9522 27 16.22V21.5C27 21.61 27.06 21.71 27.14 21.76L28.31 22.54C28.74 22.83 29 23.32 29.01 23.84V29.69C29.01 29.86 28.87 30 28.7 30H26.32C26.15 30 26.01 29.86 26.01 29.69V26.21C26.01 26.08 25.93 25.97 25.81 25.92L23.36 24.94C21.95 24.38 21.03 23.03 21 21.52L16.84 21L12 22V23.17C12 24.74 10.74 26 9.17 26H8V26.38C8 26.72 7.72 27 7.38 27H5.63C5.28 27 5 26.72 5 26.38V25.71C5 24.21 6.21 23 7.7 23H9V21.97C7.72 20.71 7 18.99 7 17.19V15.31C7 15.14 6.86 15 6.69 15H5C3.34 15 2 13.66 2 12V11.76C2 11.34 2.34 11 2.76 11H4.27C4.7 11 5.08 10.71 5.18 10.29L5.27 9.93C5.7 8.21 7.25 7 9.02 7H10.96C11.54 7 12.07 7.36 12.28 7.9L13.53 11.02C13.5509 11.0715 13.5731 11.1294 13.5971 11.192C13.848 11.8473 14.2983 13.0234 15.64 12.85L22.46 12.01C23.9265 11.8963 25.264 12.5457 26.1015 13.613C27.2804 13.0043 28.0721 11.7456 28 10.3101C27.9 8.52005 26.45 7.08005 24.67 7.00005C23.24 6.93005 21.99 7.72005 21.39 8.90005C21.04 9.58005 20.32 10.0001 19.56 10.0001H19.3C19.15 10.0001 19.03 9.87005 19.05 9.72005Z" fill="#F3AD61"/>
          <path d="M12 22V20.01L19.47 20C20.32 20 21 20.6866 21 21.5224C20.35 21.8308 19.61 22 18.84 22H12Z" fill="#FFDEA7"/>
          <path d="M7 11.34C7 11.61 7.22 11.84 7.5 11.84C7.78 11.84 8 11.61 8 11.34V10.77C8 10.49 7.78 10.27 7.5 10.27C7.22 10.27 7 10.49 7 10.77V11.34Z" fill="#212121"/>
          <path d="M2.75 12.5H3.25C3.66 12.5 4 12.16 4 11.75C4 11.34 3.66 11 3.25 11H2.75C2.34 11 2 11.34 2 11.75C2 12.16 2.34 12.5 2.75 12.5Z" fill="#212121"/>
          <path d="M9 7H12.56C13.29 7 13.83 7.69 13.65 8.4L13.05 10.79C12.88 11.5 12.24 12 11.5 12C10.77 12 10.13 11.5 9.95 10.79L9 7Z" fill="#D3883E"/>
        </g>
      </g>
    </g>
    <g transform="translate(693.3, 720)">
      <rect id="ITEM_3_BG" x="-180.0" y="-150" width="360" height="390" rx="24" fill="var(--accent-7)" fill-opacity="1.0" stroke="var(--accent-2)" stroke-width="2.6"/>
      <text id="ITEM_3_HEAD" x="0.0" y="8.0" text-anchor="middle" font-weight="bold" font-size="30" fill="var(--inverse-text)" data-bg-id="ITEM_3_BG" fill-opacity="1.0" style="font-size: 30px; font-family: Inter, Segoe UI, Kalam, Roboto, Helvetica, Arial, sans-serif; font-weight: 700; letter-spacing:-0.4px;" data-final-font-size="30">
        <tspan x="0.0" dy="49.55px">Wild Boar</tspan>
      </text>
      <rect id="ITEM_3_HEAD_FRAME" x="-150.0" y="8" width="300" height="70" fill="none"/>
      <text id="ITEM_3_BODY" x="0.0" y="82.0" text-anchor="middle" font-size="23" fill="var(--inverse-text)" opacity="0.94" data-bg-id="ITEM_3_BG" data-max-lines="5" style="font-size: 26px; font-family: Inter, Segoe UI, Kalam, Roboto, Helvetica, Arial, sans-serif; font-weight: 400;" data-final-font-size="26">
        <tspan x="0.0" dy="34.33px">Dense vegetation hides boar</tspan>
        <tspan x="0.0" dy="29.90px">features from observers</tspan>
      </text>
      <rect id="ITEM_3_BODY_FRAME" x="-174" y="82" width="348" height="108" fill="none"/>
      <circle id="ITEM_3_PAD" cx="0" cy="-45.0" r="62" fill="var(--icon-pad-bg)" stroke="var(--background)" stroke-width="2" stroke-opacity="0.65" opacity="0.94" fill-opacity="0.9"/>
      <circle id="ITEM_3_PAD_INNER" cx="0" cy="-45.0" r="48.36" fill="var(--accent-7)" fill-opacity="0.22"/>
      <circle cx="0" cy="-45.0" r="49.6" fill="none" stroke="var(--accent-2)" stroke-width="3" stroke-dasharray="6 4"/>
      <g id="ITEM_3_ICON" transform="translate(-48.0, -93.0)" data-icon-size="96" stroke-dasharray="6 4">
        <g transform="translate(-7.268571428571428,-6.404999999999995) scale(3.454285714285714)">
          <path d="M25.4 7.11L29.22 8.68C29.69 8.87 30 9.33 30 9.84V28.54C30 29.23 29.3 29.68 28.68 29.4L20.85 25.84C19.63 25.29 18.31 25 16.97 25H11.61C9.34998 25 7.24998 23.87 5.99998 22H2.93998C2.82355 22 2.71213 21.9789 2.60931 21.9404L2.61149 14.0588C2.7137 14.0208 2.82437 14 2.93998 14C5.46998 14 7.83998 12.73 9.23998 10.61L10.38 8.9C11.99 6.46 14.72 5 17.64 5C17.85 5 18.04 4.9 18.16 4.73C19.29 3.05 21.19 2 23.28 2H24.75C25.84 2 26.59 3.09 26.21 4.1C26.21 4.1 25.58 5.79 25.23 6.71C25.17 6.87 25.24 7.05 25.4 7.11Z" fill="#6D4534"/>
          <path d="M24.98 4.55L24.44 6C23.54 8.4 21.23 10 18.66 10H18.54C18.26 10 18.06 9.72 18.16 9.45L19.06 7.05C19.74 5.22 21.5 4 23.46 4H24.6C24.89 4 25.08 4.28 24.98 4.55Z" fill="#FF8687"/>
          <path d="M2.64 14.05C4.54 14.36 6 16.01 6 18C6 19.99 4.54 21.64 2.64 21.95C2.27 21.82 2 21.47 2 21.06V14.94C2 14.53 2.27 14.18 2.64 14.05Z" fill="#FF8687"/>
          <path d="M12.17 22C12.8 22 13.04 21.17 12.5 20.84C11.7 20.35 11.14 19.85 10.83 19.53C10.2 18.88 9.69003 18.15 9.32003 17.37C9.05003 16.8 8.20003 16.94 8.13003 17.56C7.97003 18.89 8.15003 20.25 8.66003 21.5C8.78003 21.8 9.08003 22 9.41003 22H12.17Z" fill="#D3D3D3"/>
          <path d="M12 16C12 16.55 12.45 17 13 17C13.55 17 14 16.55 14 16V14C14 13.45 13.55 13 13 13C12.45 13 12 13.45 12 14V16Z" fill="#1C1C1C"/>
          <path d="M3 19.5C3 19.78 3.22 20 3.5 20C3.78 20 4 19.78 4 19.5V16.5C4 16.22 3.78 16 3.5 16C3.22 16 3 16.22 3 16.5V19.5Z" fill="#1C1C1C"/>
          <path d="M24.76 13.11L23.42 14.45C23.1 14.77 22.57 14.77 22.25 14.45C21.93 14.13 21.93 13.6 22.25 13.28L23.59 11.94C23.91 11.62 24.44 11.62 24.76 11.94C25.08 12.26 25.08 12.79 24.76 13.11Z" fill="#A56953"/>
          <path d="M26 18.1H24.1C23.64 18.1 23.27 17.73 23.27 17.27C23.27 16.81 23.64 16.44 24.1 16.44H26C26.46 16.44 26.83 16.81 26.83 17.27C26.83 17.73 26.46 18.1 26 18.1Z" fill="#A56953"/>
          <path d="M23.58 22.61L22.24 21.27C21.92 20.94 21.92 20.42 22.24 20.1C22.56 19.78 23.09 19.78 23.41 20.1L24.75 21.44C25.07 21.76 25.07 22.29 24.75 22.61C24.43 22.93 23.9 22.93 23.58 22.61Z" fill="#A56953"/>
        </g>
      </g>
    </g>
    <g transform="translate(1226.7, 720)">
      <rect id="ITEM_4_BG" x="-180.0" y="-150" width="360" height="390" rx="24" fill="var(--accent-8)" fill-opacity="1.0" stroke="var(--accent-3)" stroke-width="2.6"/>
      <text id="ITEM_4_HEAD" x="0.0" y="8.0" text-anchor="middle" font-weight="bold" font-size="30" fill="var(--primary-text)" data-bg-id="ITEM_4_BG" fill-opacity="1.0" style="font-size: 30px; font-family: Inter, Segoe UI, Kalam, Roboto, Helvetica, Arial, sans-serif; font-weight: 700; letter-spacing:-0.4px;" data-final-font-size="30">
        <tspan x="0.0" dy="49.55px">Camera Blur</tspan>
      </text>
      <rect id="ITEM_4_HEAD_FRAME" x="-150.0" y="8" width="300" height="70" fill="none"/>
      <text id="ITEM_4_BODY" x="0.0" y="82.0" text-anchor="middle" font-size="23" fill="var(--primary-text)" opacity="0.94" data-bg-id="ITEM_4_BG" data-max-lines="5" style="font-size: 26px; font-family: Inter, Segoe UI, Kalam, Roboto, Helvetica, Arial, sans-serif; font-weight: 400;" data-final-font-size="26">
        <tspan x="0.0" dy="34.33px">Low-quality footage creates</tspan>
        <tspan x="0.0" dy="29.90px">distorted animal silhouettes</tspan>
      </text>
      <rect id="ITEM_4_BODY_FRAME" x="-174" y="82" width="348" height="108" fill="none"/>
      <circle id="ITEM_4_PAD" cx="0" cy="-45.0" r="62" fill="var(--icon-pad-bg)" stroke="var(--background)" stroke-width="2" stroke-opacity="0.65" opacity="0.94" fill-opacity="0.9"/>
      <circle id="ITEM_4_PAD_INNER" cx="0" cy="-45.0" r="48.36" fill="var(--accent-8)" fill-opacity="0.22"/>
      <circle cx="0" cy="-45.0" r="49.6" fill="none" stroke="var(--accent-3)" stroke-width="3" stroke-dasharray="6 4"/>
      <g id="ITEM_4_ICON" transform="translate(-48.0, -93.0)" data-icon-size="96" stroke-dasharray="6 4">
        <g transform="translate(-5.362758620689655,-5.362758620689655) scale(4.446896551724138)" vector-effect="non-scaling-stroke" stroke-width="2.86" stroke-linecap="round" stroke-linejoin="round" stroke-opacity="1.0">
          <path d="M12 22C17.5228 22 22 17.5228 22 12C22 6.47715 17.5228 2 12 2C6.47715 2 2 6.47715 2 12C2 17.5228 6.47715 22 12 22Z" stroke="#f1f5f9" vector-effect="non-scaling-stroke" fill="none"/>
          <path d="M17.1973 9C17.0976 8.82774 16.9896 8.66089 16.8739 8.5" stroke="#f1f5f9" vector-effect="non-scaling-stroke" fill="none"/>
          <path d="M17.811 13.5C17.2683 15.6084 15.6084 17.2683 13.5 17.811" stroke="#f1f5f9" vector-effect="non-scaling-stroke" fill="none"/>
        </g>
      </g>
    </g>
    <g transform="translate(1710.0, 720)">
      <rect id="ITEM_5_BG" x="-180.0" y="-150" width="360" height="390" rx="24" fill="var(--accent-9)" fill-opacity="1.0" stroke="var(--accent-4)" stroke-width="2.6"/>
      <text id="ITEM_5_HEAD" x="0.0" y="8.0" text-anchor="middle" font-weight="bold" font-size="30" fill="var(--primary-text)" data-bg-id="ITEM_5_BG" fill-opacity="1.0" style="font-size: 30px; font-family: Inter, Segoe UI, Kalam, Roboto, Helvetica, Arial, sans-serif; font-weight: 700; letter-spacing:-0.4px;" data-final-font-size="30">
        <tspan x="0.0" dy="49.55px">Optical Distortion</tspan>
      </text>
      <rect id="ITEM_5_HEAD_FRAME" x="-150.0" y="8" width="300" height="70" fill="none"/>
      <text id="ITEM_5_BODY" x="0.0" y="82.0" text-anchor="middle" font-size="23" fill="var(--primary-text)" opacity="0.94" data-bg-id="ITEM_5_BG" data-max-lines="5" style="font-size: 26px; font-family: Inter, Segoe UI, Kalam, Roboto, Helvetica, Arial, sans-serif; font-weight: 400;" data-final-font-size="26">
        <tspan x="0.0" dy="34.33px">Terrain shadows and shake</tspan>
        <tspan x="0.0" dy="29.90px">alter visual perception</tspan>
      </text>
      <rect id="ITEM_5_BODY_FRAME" x="-174" y="82" width="348" height="108" fill="none"/>
      <circle id="ITEM_5_PAD" cx="0" cy="-45.0" r="62" fill="var(--icon-pad-bg)" stroke="var(--background)" stroke-width="2" stroke-opacity="0.65" opacity="0.94" fill-opacity="0.9"/>
      <circle id="ITEM_5_PAD_INNER" cx="0" cy="-45.0" r="48.36" fill="var(--accent-9)" fill-opacity="0.22"/>
      <circle cx="0" cy="-45.0" r="49.6" fill="none" stroke="var(--accent-4)" stroke-width="3" stroke-dasharray="6 4"/>
      <g id="ITEM_5_ICON" transform="translate(-48.0, -93.0)" data-icon-size="96" stroke-dasharray="6 4">
        <g transform="translate(-7.268571428571428,-10.291071428571426) scale(3.454285714285714)">
          <path d="M8.97695 9.81822C7.68369 9.81822 7.53001 10.5467 7.61483 10.9109V25.3158L24.7324 27.2146L30.0002 22.5V15.0422L23.1876 8.26566L22.8596 8.02197L15.5002 9L12.4142 8.02197C12.2033 8.15625 11.951 8.32512 11.8094 8.46545C10.993 9.27463 10.3546 9.81822 8.97695 9.81822Z" fill="#8C5543"/>
          <path d="M13.6198 9.31063C13.035 9.08884 12.4462 8.80135 11.8037 8.47407C12.4581 7.81966 14.0595 6.21636 15.2299 5.03847C16.6928 3.5661 18.656 3.69821 19.9679 5.03847C20.2326 5.30884 20.5296 5.60931 20.8363 5.91774C18.5156 7.0625 16.3906 7.6875 13.6198 9.31063Z" fill="#CDC4D6"/>
          <path d="M13.1558 9.12228C14.1001 9.52955 15.0007 9.7862 16.0606 9.7862C17.6085 9.7862 18.8166 9.19163 19.4207 8.87073C20.0247 8.54982 21.0818 8.2006 21.9973 8.2006C22.7003 8.2006 23.0885 8.25855 23.2104 8.29102C22.8107 7.89374 22.362 7.44613 21.9279 7.00997C21.5508 6.63436 21.1458 6.22946 20.7593 5.84035C19.4543 4.68908 17.6172 4.64256 16.23 6.03871C15.2344 7.04072 13.9269 8.35058 13.1558 9.12228Z" fill="#F4F4F4"/>
          <path d="M5.96834 11.2402C5.07024 12.3299 2.95313 14.8594 2.00684 15.9879V22.5L16 27.8125L22.9724 25.3105L15.8325 18.1406C14.7667 17.0629 13.3627 16.2097 11.7162 16.2097C9.99483 16.2097 8.99195 14.7428 8.99195 13.0065C8.99195 10.9666 12.3886 10.1728 13.1604 9.12524C12.4433 8.81133 12.1057 8.64478 11.8209 8.46558C10.6252 9.68774 9.79822 9.78931 9.29321 9.78931C8.96166 9.78931 7.59646 9.61208 5.96834 11.2402Z" fill="#7D4533"/>
          <path d="M11.0125 23.0202C7.06082 21.6581 4.12549 21.9275 2 22.4664V29.9955H30V22.4609C26.8267 23.8679 23.4212 25.0261 20.0084 25.0261C16.5956 25.0261 14.9641 24.3824 11.0125 23.0202Z" fill="#00D26A"/>
        </g>
      </g>
    </g>
  </g>
</svg>
