<?xml version='1.0' encoding='utf-8'?>
<svg xmlns="http://www.w3.org/2000/svg" width="1920" height="1080" viewBox="0 0 1920 1080" data-theme="light">
  <style>
        @font-face {
            font-family: 'Inter';
            src: url('assets/fonts/Inter-Regular.ttf') format('truetype');
            font-weight: 400;
            font-style: normal;
            font-display: swap;
        }
        @font-face {
            font-family: 'Inter';
            src: url('assets/fonts/Inter-Bold.ttf') format('truetype');
            font-weight: 600;
            font-style: normal;
            font-display: swap;
        }
        @font-face {
            font-family: 'Inter';
            src: url('assets/fonts/Inter-Bold.ttf') format('truetype');
            font-weight: 800;
            font-style: normal;
            font-display: swap;
        }
        
:root {
    --background: #f8fafc;
    --panel: #ffffff;
    --primary-text: #0f172a;
    --muted-text: #64748b;
    --inverse-text: #ffffff;
    --border: #e2e8f0;
    --shadow-color: #000000;
    --icon-pad-bg: #1e293b;
    --art-glow: #0891b2;
    --art-glow-opacity: 0.10;
    --art-sheen: #ffffff;
    --art-sheen-opacity: 0.34;
    --art-shadow: #0f172a;
    --art-shadow-opacity: 0.14;
    --art-muted-line: #94a3b8;
    --art-panel-tint: #f1f5f9;
    --font-family: 'Inter', 'Segoe UI', 'Kalam', Roboto, Helvetica, Arial, sans-serif;
    --radius-xl: 16px;
    --font-family-headline: 'Inter', 'Segoe UI', 'Kalam', Roboto, Helvetica, Arial, sans-serif;
    --font-family-body: 'Inter', 'Segoe UI', 'Kalam', Roboto, Helvetica, Arial, sans-serif;
    --font-heading: 'Inter', 'Segoe UI', 'Kalam', Roboto, Helvetica, Arial, sans-serif;
    --font-body: 'Inter', 'Segoe UI', 'Kalam', Roboto, Helvetica, Arial, sans-serif;
    --font-size-h1: 56px;
    --font-size-h2: 40px;
    --font-size-h3: 28px;
    --font-size-body: 24px;
    --font-size-caption: 18px;
    --secondary-text: var(--muted-text);
    --panel-border: var(--border);
    --font-weight-normal: 400;
    --font-weight-medium: 500;
    --font-weight-semibold: 600;
    --font-weight-bold: 700;
    --spacing-gutter-pct: 0.07;
    --spacing-top-pct: 0.15;
    --spacing-bottom-pct: 0.07;
    --spacing-title-y-pct: 0.055;
    --accent-1: #3b82f6;
    --accent-2: #22c55e;
    --accent-3: #f59e0b;
    --accent-4: #ec4899;
    --accent-5: #8b5cf6;
    --accent-6: #06b6d4;
}
:root[data-theme="dark"] {
    --background: #0f172a;
    --panel: #1e293b;
    --primary-text: #f1f5f9;
    --muted-text: #94a3b8;
    --inverse-text: #0f172a;
    --border: #334155;
    --shadow-color: #000000;
    --icon-pad-bg: #1e293b;
    --art-glow: #7dd3fc;
    --art-glow-opacity: 0.18;
    --art-sheen: #ffffff;
    --art-sheen-opacity: 0.18;
    --art-shadow: #000000;
    --art-shadow-opacity: 0.28;
    --art-muted-line: #64748b;
    --art-panel-tint: #1e293b;
    --accent-1: #93c5fd;
    --accent-2: #86efac;
    --accent-3: #fcd34d;
    --accent-4: #f9a8d4;
    --accent-5: #c4b5fd;
    --accent-6: #a5f3fc;
}
:root[data-theme="light"] {
    --background: #f8fafc;
    --panel: #ffffff;
    --primary-text: #0f172a;
    --muted-text: #64748b;
    --inverse-text: #ffffff;
    --border: #e2e8f0;
    --shadow-color: #000000;
    --icon-pad-bg: #1e293b;
    --art-glow: #0891b2;
    --art-glow-opacity: 0.10;
    --art-sheen: #ffffff;
    --art-sheen-opacity: 0.34;
    --art-shadow: #0f172a;
    --art-shadow-opacity: 0.14;
    --art-muted-line: #94a3b8;
    --art-panel-tint: #f1f5f9;
    --accent-1: #3b82f6;
    --accent-2: #22c55e;
    --accent-3: #f59e0b;
    --accent-4: #ec4899;
    --accent-5: #8b5cf6;
    --accent-6: #06b6d4;
}</style>
  <rect x="0" y="0" width="1.92E+3" height="1.08E+3" fill="#252a34" stroke="none" id="programmatic_background"/>
  <line id="HEADER_DECOR" x1="960.0" x2="1080.0" y1="105.0" y2="105.0" stroke="var(--accent-1)" stroke-width="6" stroke-linecap="round"/>
  <defs>
    <pattern id="svgc5fc39f5-napkin-hatch" patternUnits="userSpaceOnUse" width="12" height="12">
      <path d="M -3 12 L 12 -3 M 0 15 L 15 0" fill="none" stroke="var(--primary-text)" stroke-width="1" stroke-opacity="0.05"/>
    </pattern>
    <filter id="svgc5fc39f5-shadow" x="-30%" y="-30%" width="160%" height="160%">
      <feDropShadow dx="0" dy="3" stdDeviation="6" flood-color="#000000" flood-opacity="0.10"/>
      <feDropShadow dx="0" dy="8" stdDeviation="12" flood-color="#000000" flood-opacity="0.16"/>
    </filter>
    <radialGradient id="svgc5fc39f5-universal-edge-vignette" cx="50%" cy="50%" r="72%">
      <stop offset="0%" stop-color="var(--background)" stop-opacity="0"/>
      <stop offset="72%" stop-color="var(--background)" stop-opacity="0.12"/>
      <stop offset="100%" stop-color="var(--primary-text)" stop-opacity="0.08"/>
    </radialGradient>
    <linearGradient id="svgc5fc39f5-universal-surface-sheen" x1="0%" y1="0%" x2="100%" y2="100%">
      <stop offset="0%" stop-color="var(--art-sheen)" stop-opacity="var(--art-sheen-opacity)"/>
      <stop offset="46%" stop-color="var(--art-sheen)" stop-opacity="0.035"/>
      <stop offset="100%" stop-color="var(--art-panel-tint)" stop-opacity="0.14"/>
    </linearGradient>
    <radialGradient id="svgc5fc39f5-universal-icon-aura" cx="50%" cy="42%" r="64%">
      <stop offset="0%" stop-color="var(--art-glow)" stop-opacity="var(--art-glow-opacity)"/>
      <stop offset="100%" stop-color="var(--background)" stop-opacity="0"/>
    </radialGradient>
    <linearGradient id="svgc5fc39f5-card-panel-sheen" x1="0%" y1="0%" x2="100%" y2="100%">
      <stop offset="0%" stop-color="var(--inverse-text)" stop-opacity="0.20"/>
      <stop offset="48%" stop-color="var(--inverse-text)" stop-opacity="0.04"/>
      <stop offset="100%" stop-color="var(--background)" stop-opacity="0.16"/>
    </linearGradient>
    <radialGradient id="svgc5fc39f5-card-icon-glow" cx="50%" cy="35%" r="62%">
      <stop offset="0%" stop-color="var(--inverse-text)" stop-opacity="0.22"/>
      <stop offset="100%" stop-color="var(--background)" stop-opacity="0"/>
    </radialGradient>
    <filter id="svgc5fc39f5-text-glow" x="-20%" y="-20%" width="140%" height="140%">
      <feDropShadow dx="0" dy="0" stdDeviation="2" flood-color="#000000" flood-opacity="0.4"/>
    </filter>
    <marker id="svgc5fc39f5-arrowhead" markerWidth="10" markerHeight="7" refX="9" refY="3.5" orient="auto" markerUnits="strokeWidth">
      <polygon points="0 0, 10 3.5, 0 7" fill="var(--muted-text)" opacity="0.6"/>
    </marker>
  </defs>
  <rect width="100%" height="100%" fill="var(--background)" id="CANVAS_BG"/>
  <rect width="100%" height="100%" fill="url(#svgc5fc39f5-napkin-hatch)"/>
  <rect id="UNIVERSAL_EDGE_VIGNETTE" width="100%" height="100%" fill="url(#svgc5fc39f5-universal-edge-vignette)" opacity="0.62"/>
  <text id="TITLE" x="960.0" y="59" font-size="54" font-weight="800" fill="#0f172a" text-anchor="middle" style="font-size: 60px; font-family: Inter, Segoe UI, Kalam, Roboto, Helvetica, Arial, sans-serif; font-weight: 700; letter-spacing:-1.2px;" data-final-font-size="60">
    <tspan x="960.0" dy="68.00px">Mourou-Ngou Physical Characteristics</tspan>
  </text>
  <rect id="TITLE_FRAME" x="134" y="35" width="1652" height="78" fill="none"/>
  <rect x="120" y="150" width="1680" height="830" rx="40" fill="var(--panel)" fill-opacity="0.24" stroke="var(--muted-text)" stroke-width="2" opacity="0.94"/>
  <g id="DIAGRAM_MAIN">
    <g filter="url(#svgc5fc39f5-shadow)">
      <rect id="ITEM_1_BG" x="170" y="180" width="480" height="388" rx="28" fill="var(--panel)" fill-opacity="0.98" stroke="var(--accent-1)" stroke-width="3"/>
      <rect x="170" y="180" width="480" height="18" rx="9" fill="var(--accent-1)" fill-opacity="0.55"/>
      <rect x="295" y="216" width="230" height="30" rx="15" fill="var(--accent-1)" fill-opacity="0.10"/>
      <circle id="ITEM_1_PAD" cx="410" cy="262" r="54" fill="var(--icon-pad-bg)" opacity="0.95" fill-opacity="0.9" stroke-width="2" stroke="var(--primary-text)"/>
      <circle id="ITEM_1_PAD_INNER" cx="410" cy="262" r="42.12" fill="var(--accent-2)" fill-opacity="0.22"/>
      <circle cx="410" cy="262" r="42" fill="none" stroke="var(--accent-1)" stroke-width="3" stroke-dasharray="6 4"/>
      <g id="ITEM_1_ICON" transform="translate(373, 225)" data-icon-size="74">
        <g transform="translate(-7.928000000000004,-7.928000000000006) scale(0.17550000000000002)" vector-effect="non-scaling-stroke" fill="#f1f5f9" fill-opacity="1.0" stroke="none">
          <path fill="#f1f5f9" d="M110.056 64.815c-4.234.027-8.355.587-12.337 1.799C83.13 71.054 72.93 77.03 65.24 87.333c-7.691 10.303-13.122 25.717-15.516 49.713c-.669 6.708 2.012 18.384 7.75 30.986s14.248 26.276 23.829 38.387l2.49 3.146l-.678 3.955c-3.097 18.091-3.644 50.706-.252 68.778c.836 4.454 5.766 14.497 13.611 26.296c7.846 11.8 18.412 25.829 30.032 40.944c23.239 30.23 50.678 64.773 69.81 96.547c.024.038.347.525 2.139.886c1.791.362 4.605.28 7.127-.35c2.441-.609 4.524-1.766 5.338-2.458c-9.946-42.286-16.14-84.185-37.51-125.14l-10.102-19.358l20.809 6.617c21.64 6.882 48.718 8.897 73.396 7.719c24.679-1.179 47.26-5.681 58.868-10.362l5.648-2.277l4.215 4.397c43.225 45.089 73.427 98.048 112.644 140.935c.12.132-.139.16.91.088c1.05-.072 3-.714 4.706-1.914c1.705-1.2 3.106-2.882 3.722-4.234c.617-1.353.659-2.086.268-3.149c-20.396-55.487-30.565-109.894-61.84-162.258l-2.103-3.521l1.279-3.9c6.869-20.923 17.852-42.768 42.902-60.303l4.535-3.176l4.881 2.617c11.454 6.145 19.123 5.873 25.69 1.936c13.132-7.875 24.15-23.88 28.625-37.784l-14.768-8.31l-.943-3.746c-4.025-15.96-8.255-25.48-14.625-32.719s-15.576-12.896-30.977-19.543l-6.426-2.773l1.104-6.91c.89-5.57.052-11.481-1.184-17.768c-36.228 29.915-52.892 64.4-86.533 100.086l-3.197 3.39l-4.613-.652c-57.84-8.187-142.926-5.257-198.455 1.436c-6.045.728-11.262-1.14-16.34-3.733s-9.996-6.2-14.475-10.492c-8.957-8.584-16.938-19.87-16.01-33.258c.654-9.426 2.683-17.048 7.006-23.01c4.323-5.961 11.13-9.434 17.815-10.27c13.368-1.669 26.916 3.833 42.058 10.04c30.285 12.415 65.987 29.01 93.022 21.717c10.554-2.848 30.674-20.089 44.4-37.834c6.863-8.873 12.442-17.861 15.377-24.528c1.339-3.041 2.013-5.487 2.24-6.923c-.507-.106-1.153-.163-2.355-.08c-2.665.182-7.069 1.375-12.56 3.814c-10.985 4.877-26.237 14.423-44.675 26.896c-11.984 8.108-26.017 8.386-38.992 5.153s-25.743-9.626-38.58-16.04c-19.255-9.619-38.213-18.81-55.45-20.077a54 54 0 0 0-4.27-.147zm343.096 73.006l9.832 22.123l-22.474-3.512zM75.28 308.858c-14.235 49.028-35.548 97.072-55.633 132.947c-.014.026-.02.015-.03.028a.7.7 0 0 1 .122.207c.258.592 1.295 1.961 2.856 3.035s3.553 1.828 4.945 2.008c1.391.18 1.836-.11 1.84-.114c33.669-24.914 58.717-55.4 83.47-85.668l-.613-.794c-11.682-15.197-22.427-29.428-30.75-41.946c-2.25-3.384-4.321-6.6-6.207-9.703M19.615 441.833c-.108-.114-.099.11 0 0m297.377-119.485c-7.129 2.366-15.533 4.408-24.863 6.022c-12.418 40.091-33.327 77.867-52.203 112.605l-.141.26l-.158.25c-.31.491-.252.186-.049.783s1.012 1.81 2.27 2.707c2.514 1.796 4.82 2.374 7.208.23l.047-.04l.047-.041c32.285-28.17 59.254-61.458 85.242-102.867c-5.621-6.799-11.396-13.455-17.4-19.909" vector-effect="non-scaling-stroke" stroke="none"/>
        </g>
      </g>
      <text id="ITEM_1_HEAD" x="410.0" y="328.0" font-weight="800" font-size="28" fill="var(--primary-text)" text-anchor="middle" data-bg-id="ITEM_1_BG" fill-opacity="1.0" style="font-size: 30px; font-family: Inter, Segoe UI, Kalam, Roboto, Helvetica, Arial, sans-serif; font-weight: 700; letter-spacing:-0.4px;" data-final-font-size="30">
        <tspan x="410.0" dy="42.97px">Leopard Body</tspan>
      </text>
      <rect id="ITEM_1_HEAD_FRAME" x="230" y="328" width="360" height="56" fill="none"/>
      <text id="ITEM_1_BODY" x="410.0" y="378.0" font-size="18" fill="var(--primary-text)" text-anchor="middle" data-bg-id="ITEM_1_BG" style="font-size: 26px; font-family: Inter, Segoe UI, Kalam, Roboto, Helvetica, Arial, sans-serif; font-weight: 400;" data-final-font-size="26">
        <tspan x="410.0" dy="47.53px">The creature possesses a feline shape</tspan>
        <tspan x="410.0" dy="29.90px">similar to panthers</tspan>
      </text>
      <rect id="ITEM_1_BODY_FRAME" x="195" y="378" width="430" height="156" fill="none"/>
    </g>
    <g filter="url(#svgc5fc39f5-shadow)">
      <rect id="ITEM_2_BG" x="720" y="180" width="480" height="388" rx="28" fill="var(--panel)" fill-opacity="0.98" stroke="var(--accent-2)" stroke-width="3"/>
      <rect x="720" y="180" width="480" height="18" rx="9" fill="var(--accent-2)" fill-opacity="0.55"/>
      <rect x="845" y="216" width="230" height="30" rx="15" fill="var(--accent-2)" fill-opacity="0.10"/>
      <circle id="ITEM_2_PAD" cx="960" cy="262" r="54" fill="var(--icon-pad-bg)" opacity="0.95" fill-opacity="0.9" stroke-width="2" stroke="var(--primary-text)"/>
      <circle id="ITEM_2_PAD_INNER" cx="960" cy="262" r="42.12" fill="var(--accent-3)" fill-opacity="0.22"/>
      <circle cx="960" cy="262" r="42" fill="none" stroke="var(--accent-2)" stroke-width="3" stroke-dasharray="6 4"/>
      <g id="ITEM_2_ICON" transform="translate(923, 225)" data-icon-size="74">
        <g transform="translate(-7.904793388429757,-6.512396694214881) scale(2.7847933884297524)">
          <path d="M30.9986 10.0165C30.7491 5.35595 26.7698 1.77337 22.1095 2.01119C20.5183 2.09085 18.9868 2.62497 17.6845 3.54211C16.6797 4.24918 15.3301 4.24901 14.3253 3.54194C10.5035 0.854248 5.22976 1.77288 2.54204 5.59466C-0.144973 9.41543 0.772522 14.6875 4.59187 17.3759C4.83815 17.5515 5.09815 17.709 5.32128 17.8408L5.33228 17.8473L5.34343 17.8535C5.83237 18.1259 6.15047 18.6362 6.18153 19.1954L6.28194 20.8119L6.28208 20.8142C6.46853 23.7096 7.76254 26.4209 9.90355 28.3764C10.9688 29.3586 12.6302 29.2935 13.6148 28.2282C14.0074 27.8029 14.2416 27.2606 14.3039 26.7003L14.3047 26.6928L14.765 21.8905C14.8062 21.5077 15.0022 20.9738 15.3058 20.5471C15.6333 20.0867 15.896 19.9999 15.9844 19.9999C16.0775 19.9999 16.3486 20.0922 16.684 20.5546C16.9952 20.9836 17.1945 21.5152 17.2351 21.8906L17.6939 26.6785L17.6943 26.6823C17.8251 28.1304 19.099 29.1933 20.5458 29.0662C21.1223 29.0176 21.6744 28.7779 22.1028 28.3706C24.24 26.4156 25.5317 23.7067 25.7179 20.8142L25.7181 20.8119L25.8178 19.2064L25.8179 19.2044C25.856 18.6445 26.173 18.1362 26.6717 17.8507C29.4915 16.2745 31.1687 13.2364 30.9986 10.0165Z" fill="#9B9B9B"/>
          <path d="M29.9999 10.0699C29.7799 5.95989 26.2699 2.79989 22.1599 3.00989C20.7599 3.07989 19.4099 3.54989 18.2599 4.35989C16.9099 5.30989 15.0999 5.30989 13.7499 4.35989C10.3799 1.98989 5.72993 2.79989 3.35993 6.16989C0.989931 9.53989 1.79993 14.1899 5.16993 16.5599C5.37993 16.7099 5.60993 16.8499 5.82993 16.9799C6.61993 17.4199 7.12993 18.2399 7.17993 19.1399L7.27993 20.7499C7.44993 23.3899 8.62993 25.8599 10.5799 27.6399C11.2399 28.2499 12.2699 28.2099 12.8799 27.5499C13.1199 27.2899 13.2699 26.9499 13.3099 26.5899L13.7699 21.7899C13.8899 20.6499 14.8343 18.9999 15.9843 18.9999C17.1343 18.9999 18.1099 20.6499 18.2299 21.7899L18.6899 26.5899C18.7699 27.4899 19.5599 28.1499 20.4599 28.0699C20.8199 28.0399 21.1599 27.8899 21.4199 27.6399C23.3699 25.8599 24.5499 23.3899 24.7199 20.7499L24.8199 19.1399C24.8799 18.2399 25.3899 17.4299 26.1799 16.9799C28.6699 15.5899 30.1499 12.9099 29.9999 10.0699Z" fill="white"/>
          <path d="M24.2188 5.15651C23.5 5.26068 21.7063 5.65651 20.2812 6.40651C20.0018 6.55361 19.7569 6.70532 19.5348 6.85658C19.4845 6.91729 19.4191 6.96695 19.3412 6.9992C19.3333 7.00247 19.3254 7.00585 19.3174 7.00933C19.1361 7.14032 18.9692 7.26967 18.8087 7.39403C18.6197 7.54042 18.4397 7.6799 18.2558 7.80699C18.0059 8.05765 17.7526 8.35287 17.5157 8.68042C16.9048 9.52512 16.4919 10.4634 16.4919 11.2157C16.4919 11.4919 16.2681 11.7157 15.9919 11.7157C15.7158 11.7158 15.4919 11.4919 15.4919 11.2158C15.4919 10.2913 15.9119 9.30075 16.458 8.456C16.3426 8.46456 16.2214 8.46901 16.0938 8.46901C14.5696 8.46901 13.5732 7.7652 12.5899 7.07053C12.2627 6.83943 11.937 6.60934 11.5938 6.40651C10.4938 5.75651 8.28125 5.35443 7.125 5.15651C8.3125 4.83359 10.9437 4.31276 11.9688 4.81276C12.4123 5.02912 12.8783 5.33911 13.3486 5.65197C14.2369 6.24285 15.1407 6.84399 15.9375 6.84399C16.6659 6.84399 17.3609 6.29701 18.0557 5.75013C18.5234 5.38201 18.991 5.01393 19.4688 4.81276C20.4187 4.41275 23.0312 4.87525 24.2188 5.15651Z" fill="#D3D3D3"/>
        </g>
      </g>
      <text id="ITEM_2_HEAD" x="960.0" y="328.0" font-weight="800" font-size="28" fill="var(--primary-text)" text-anchor="middle" data-bg-id="ITEM_2_BG" fill-opacity="1.0" style="font-size: 30px; font-family: Inter, Segoe UI, Kalam, Roboto, Helvetica, Arial, sans-serif; font-weight: 700; letter-spacing:-0.4px;" data-final-font-size="30">
        <tspan x="960.0" dy="42.97px">Oversized Fangs</tspan>
      </text>
      <rect id="ITEM_2_HEAD_FRAME" x="780" y="328" width="360" height="56" fill="none"/>
      <text id="ITEM_2_BODY" x="960.0" y="378.0" font-size="18" fill="var(--primary-text)" text-anchor="middle" data-bg-id="ITEM_2_BG" style="font-size: 26px; font-family: Inter, Segoe UI, Kalam, Roboto, Helvetica, Arial, sans-serif; font-weight: 400;" data-final-font-size="26">
        <tspan x="960.0" dy="47.53px">Long projecting fangs distinguish it</tspan>
        <tspan x="960.0" dy="29.90px">from standard leopards</tspan>
      </text>
      <rect id="ITEM_2_BODY_FRAME" x="745" y="378" width="430" height="156" fill="none"/>
    </g>
    <g filter="url(#svgc5fc39f5-shadow)">
      <rect id="ITEM_3_BG" x="1270" y="180" width="480" height="388" rx="28" fill="var(--panel)" fill-opacity="0.98" stroke="var(--accent-3)" stroke-width="3"/>
      <rect x="1270" y="180" width="480" height="18" rx="9" fill="var(--accent-3)" fill-opacity="0.55"/>
      <rect x="1395" y="216" width="230" height="30" rx="15" fill="var(--accent-3)" fill-opacity="0.10"/>
      <circle id="ITEM_3_PAD" cx="1510" cy="262" r="54" fill="var(--icon-pad-bg)" opacity="0.95" fill-opacity="0.9" stroke-width="2" stroke="var(--primary-text)"/>
      <circle id="ITEM_3_PAD_INNER" cx="1510" cy="262" r="42.12" fill="var(--accent-4)" fill-opacity="0.22"/>
      <circle cx="1510" cy="262" r="42" fill="none" stroke="var(--accent-3)" stroke-width="3" stroke-dasharray="6 4"/>
      <g id="ITEM_3_ICON" transform="translate(1473, 225)" data-icon-size="74">
        <g transform="translate(-12.920000000000005,-12.920000000000005) scale(4.16)" vector-effect="non-scaling-stroke" stroke-width="2.60" stroke-linecap="round" stroke-linejoin="round" stroke-opacity="1.0">
          <path d="M6 3l-3 3" vector-effect="non-scaling-stroke" fill="none" stroke="#f1f5f9"/>
          <path d="M21 18l-3 3" vector-effect="non-scaling-stroke" fill="none" stroke="#f1f5f9"/>
          <path d="M11 3l-8 8" vector-effect="non-scaling-stroke" fill="none" stroke="#f1f5f9"/>
          <path d="M16 3l-13 13" vector-effect="non-scaling-stroke" fill="none" stroke="#f1f5f9"/>
          <path d="M21 3l-18 18" vector-effect="non-scaling-stroke" fill="none" stroke="#f1f5f9"/>
          <path d="M21 8l-13 13" vector-effect="non-scaling-stroke" fill="none" stroke="#f1f5f9"/>
          <path d="M21 13l-8 8" vector-effect="non-scaling-stroke" fill="none" stroke="#f1f5f9"/>
        </g>
      </g>
      <text id="ITEM_3_HEAD" x="1510.0" y="328.0" font-weight="800" font-size="28" fill="var(--primary-text)" text-anchor="middle" data-bg-id="ITEM_3_BG" fill-opacity="1.0" style="font-size: 30px; font-family: Inter, Segoe UI, Kalam, Roboto, Helvetica, Arial, sans-serif; font-weight: 700; letter-spacing:-0.4px;" data-final-font-size="30">
        <tspan x="1510.0" dy="42.97px">Striped Markings</tspan>
      </text>
      <rect id="ITEM_3_HEAD_FRAME" x="1330" y="328" width="360" height="56" fill="none"/>
      <text id="ITEM_3_BODY" x="1510.0" y="378.0" font-size="18" fill="var(--primary-text)" text-anchor="middle" data-bg-id="ITEM_3_BG" style="font-size: 26px; font-family: Inter, Segoe UI, Kalam, Roboto, Helvetica, Arial, sans-serif; font-weight: 400;" data-final-font-size="26">
        <tspan x="1510.0" dy="47.53px">Witnesses describe stripes or pale</tspan>
        <tspan x="1510.0" dy="29.90px">blue-white patches</tspan>
      </text>
      <rect id="ITEM_3_BODY_FRAME" x="1295" y="378" width="430" height="156" fill="none"/>
    </g>
    <g filter="url(#svgc5fc39f5-shadow)">
      <rect id="ITEM_4_BG" x="260" y="580" width="660" height="370" rx="30" fill="var(--panel)" fill-opacity="0.98" stroke="var(--accent-4)" stroke-width="3"/>
      <rect x="260" y="590" width="660" height="18" rx="9" fill="var(--accent-4)" fill-opacity="0.55"/>
      <rect x="430" y="628" width="320" height="32" rx="16" fill="var(--accent-4)" fill-opacity="0.10"/>
      <circle id="ITEM_4_PAD" cx="590" cy="684" r="54" fill="var(--icon-pad-bg)" opacity="0.95" fill-opacity="0.9" stroke-width="2" stroke="var(--primary-text)"/>
      <circle id="ITEM_4_PAD_INNER" cx="590" cy="684" r="42.12" fill="var(--accent-5)" fill-opacity="0.22"/>
      <circle cx="590" cy="684" r="42" fill="none" stroke="var(--accent-4)" stroke-width="3" stroke-dasharray="6 4"/>
      <g id="ITEM_4_ICON" transform="translate(551, 645)" data-icon-size="78">
        <g transform="translate(-12.840000000000005,-12.840000000000005) scale(0.405)" vector-effect="non-scaling-stroke" stroke-width="2.65" stroke-linecap="round" stroke-linejoin="round" stroke-opacity="1.0">
          <line x1="88" y1="56" x2="168" y2="56" fill="none" stroke="#f1f5f9" vector-effect="non-scaling-stroke"/>
          <line x1="88" y1="88" x2="168" y2="88" fill="none" stroke="#f1f5f9" vector-effect="non-scaling-stroke"/>
          <line x1="88" y1="120" x2="168" y2="120" fill="none" stroke="#f1f5f9" vector-effect="non-scaling-stroke"/>
          <line x1="88" y1="32" x2="88" y2="141.39" fill="none" stroke="#f1f5f9" vector-effect="non-scaling-stroke"/>
          <line x1="168" y1="32" x2="168" y2="143.29" fill="none" stroke="#f1f5f9" vector-effect="non-scaling-stroke"/>
          <path d="M32,168c24,0,24,16,48,16s24-16,48-16,24,16,48,16,24-16,48-16" fill="none" stroke="#f1f5f9" vector-effect="non-scaling-stroke"/>
          <path d="M32,208c24,0,24,16,48,16s24-16,48-16,24,16,48,16,24-16,48-16" fill="none" stroke="#f1f5f9" vector-effect="non-scaling-stroke"/>
        </g>
      </g>
      <text id="ITEM_4_HEAD" x="590.0" y="754.0" font-weight="800" font-size="30" fill="var(--primary-text)" text-anchor="middle" data-bg-id="ITEM_4_BG" fill-opacity="1.0" style="font-size: 30px; font-family: Inter, Segoe UI, Kalam, Roboto, Helvetica, Arial, sans-serif; font-weight: 700; letter-spacing:-0.4px;" data-final-font-size="30">
        <tspan x="590.0" dy="44.21px">Semi-Aquatic Build</tspan>
      </text>
      <rect id="ITEM_4_HEAD_FRAME" x="380" y="754" width="420" height="58" fill="none"/>
      <text id="ITEM_4_BODY" x="595.0" y="798.0" font-size="18" fill="var(--primary-text)" text-anchor="middle" data-bg-id="ITEM_4_BG" style="font-size: 26px; font-family: Inter, Segoe UI, Kalam, Roboto, Helvetica, Arial, sans-serif; font-weight: 400;" data-final-font-size="26">
        <tspan x="595.0" dy="45.54px">Powerful swimming abilities allow for rapid</tspan>
        <tspan x="595.0" dy="29.90px">river movement</tspan>
      </text>
      <rect id="ITEM_4_BODY_FRAME" x="360" y="798" width="470" height="148" fill="none"/>
    </g>
    <g filter="url(#svgc5fc39f5-shadow)">
      <rect id="ITEM_5_BG" x="1000" y="580" width="660" height="370" rx="30" fill="var(--panel)" fill-opacity="0.98" stroke="var(--accent-5)" stroke-width="3"/>
      <rect x="1000" y="590" width="660" height="18" rx="9" fill="var(--accent-5)" fill-opacity="0.55"/>
      <rect x="1170" y="628" width="320" height="32" rx="16" fill="var(--accent-5)" fill-opacity="0.10"/>
      <circle id="ITEM_5_PAD" cx="1330" cy="684" r="54" fill="var(--icon-pad-bg)" opacity="0.95" fill-opacity="0.9" stroke-width="2" stroke="var(--primary-text)"/>
      <circle id="ITEM_5_PAD_INNER" cx="1330" cy="684" r="42.12" fill="var(--accent-6)" fill-opacity="0.22"/>
      <circle cx="1330" cy="684" r="42" fill="none" stroke="var(--accent-5)" stroke-width="3" stroke-dasharray="6 4"/>
      <g id="ITEM_5_ICON" transform="translate(1291, 645)" data-icon-size="78">
        <g transform="translate(-6.689491525423733,-6.689491525423733) scale(3.8074576271186444)" vector-effect="non-scaling-stroke" stroke-width="2.65" stroke-linecap="round" stroke-linejoin="round" stroke-opacity="1.0">
          <path d="M21.3 15.3a2.4 2.4 0 0 1 0 3.4l-2.6 2.6a2.4 2.4 0 0 1-3.4 0L2.7 8.7a2.41 2.41 0 0 1 0-3.4l2.6-2.6a2.41 2.41 0 0 1 3.4 0Z" vector-effect="non-scaling-stroke" fill="none" stroke="#f1f5f9"/>
          <path d="m14.5 12.5 2-2" vector-effect="non-scaling-stroke" fill="none" stroke="#f1f5f9"/>
          <path d="m11.5 9.5 2-2" vector-effect="non-scaling-stroke" fill="none" stroke="#f1f5f9"/>
          <path d="m8.5 6.5 2-2" vector-effect="non-scaling-stroke" fill="none" stroke="#f1f5f9"/>
          <path d="m17.5 15.5 2-2" vector-effect="non-scaling-stroke" fill="none" stroke="#f1f5f9"/>
        </g>
      </g>
      <text id="ITEM_5_HEAD" x="1330.0" y="754.0" font-weight="800" font-size="30" fill="var(--primary-text)" text-anchor="middle" data-bg-id="ITEM_5_BG" fill-opacity="1.0" style="font-size: 30px; font-family: Inter, Segoe UI, Kalam, Roboto, Helvetica, Arial, sans-serif; font-weight: 700; letter-spacing:-0.4px;" data-final-font-size="30">
        <tspan x="1330.0" dy="44.21px">Large Scale</tspan>
      </text>
      <rect id="ITEM_5_HEAD_FRAME" x="1120" y="754" width="420" height="58" fill="none"/>
      <text id="ITEM_5_BODY" x="1335.0" y="798.0" font-size="18" fill="var(--primary-text)" text-anchor="middle" data-bg-id="ITEM_5_BG" style="font-size: 26px; font-family: Inter, Segoe UI, Kalam, Roboto, Helvetica, Arial, sans-serif; font-weight: 400;" data-final-font-size="26">
        <tspan x="1335.0" dy="45.54px">The beast is reported to exceed</tspan>
        <tspan x="1335.0" dy="29.90px">lion dimensions</tspan>
      </text>
      <rect id="ITEM_5_BODY_FRAME" x="1100" y="798" width="470" height="148" fill="none"/>
    </g>
  </g>
</svg>
