<?xml version='1.0' encoding='utf-8'?>
<svg xmlns="http://www.w3.org/2000/svg" width="1920" height="1080" viewBox="0 0 1920 1080" data-theme="dark">
  <style>
        @font-face {
            font-family: 'Inter';
            src: url('assets/fonts/Inter-Regular.ttf') format('truetype');
            font-weight: 400;
            font-style: normal;
            font-display: swap;
        }
        @font-face {
            font-family: 'Inter';
            src: url('assets/fonts/Inter-Bold.ttf') format('truetype');
            font-weight: 600;
            font-style: normal;
            font-display: swap;
        }
        @font-face {
            font-family: 'Inter';
            src: url('assets/fonts/Inter-Bold.ttf') format('truetype');
            font-weight: 800;
            font-style: normal;
            font-display: swap;
        }
        
:root {
    --background: #0f172a;
    --panel: #1e293b;
    --primary-text: #f1f5f9;
    --muted-text: #94a3b8;
    --inverse-text: #0f172a;
    --border: #334155;
    --shadow-color: #000000;
    --icon-pad-bg: #1e293b;
    --art-glow: #7dd3fc;
    --art-glow-opacity: 0.18;
    --art-sheen: #ffffff;
    --art-sheen-opacity: 0.18;
    --art-shadow: #000000;
    --art-shadow-opacity: 0.28;
    --art-muted-line: #64748b;
    --art-panel-tint: #1e293b;
    --font-family: 'Inter', 'Segoe UI', 'Kalam', Roboto, Helvetica, Arial, sans-serif;
    --radius-xl: 16px;
    --font-family-headline: 'Inter', 'Segoe UI', 'Kalam', Roboto, Helvetica, Arial, sans-serif;
    --font-family-body: 'Inter', 'Segoe UI', 'Kalam', Roboto, Helvetica, Arial, sans-serif;
    --font-heading: 'Inter', 'Segoe UI', 'Kalam', Roboto, Helvetica, Arial, sans-serif;
    --font-body: 'Inter', 'Segoe UI', 'Kalam', Roboto, Helvetica, Arial, sans-serif;
    --font-size-h1: 56px;
    --font-size-h2: 40px;
    --font-size-h3: 28px;
    --font-size-body: 24px;
    --font-size-caption: 18px;
    --secondary-text: var(--muted-text);
    --panel-border: var(--border);
    --font-weight-normal: 400;
    --font-weight-medium: 500;
    --font-weight-semibold: 600;
    --font-weight-bold: 700;
    --spacing-gutter-pct: 0.07;
    --spacing-top-pct: 0.15;
    --spacing-bottom-pct: 0.07;
    --spacing-title-y-pct: 0.055;
    --accent-1: #fbbf24;
    --accent-2: #fb923c;
    --accent-3: #f87171;
    --accent-4: #a3e635;
    --accent-5: #4ade80;
    --accent-6: #d4a574;
}
:root[data-theme="dark"] {
    --background: #0f172a;
    --panel: #1e293b;
    --primary-text: #f1f5f9;
    --muted-text: #94a3b8;
    --inverse-text: #0f172a;
    --border: #334155;
    --shadow-color: #000000;
    --icon-pad-bg: #1e293b;
    --art-glow: #7dd3fc;
    --art-glow-opacity: 0.18;
    --art-sheen: #ffffff;
    --art-sheen-opacity: 0.18;
    --art-shadow: #000000;
    --art-shadow-opacity: 0.28;
    --art-muted-line: #64748b;
    --art-panel-tint: #1e293b;
    --accent-1: #fbbf24;
    --accent-2: #fb923c;
    --accent-3: #f87171;
    --accent-4: #a3e635;
    --accent-5: #4ade80;
    --accent-6: #d4a574;
}
:root[data-theme="light"] {
    --background: #f8fafc;
    --panel: #ffffff;
    --primary-text: #0f172a;
    --muted-text: #64748b;
    --inverse-text: #ffffff;
    --border: #e2e8f0;
    --shadow-color: #000000;
    --icon-pad-bg: #1e293b;
    --art-glow: #0891b2;
    --art-glow-opacity: 0.10;
    --art-sheen: #ffffff;
    --art-sheen-opacity: 0.34;
    --art-shadow: #0f172a;
    --art-shadow-opacity: 0.14;
    --art-muted-line: #94a3b8;
    --art-panel-tint: #f1f5f9;
    --accent-1: #d97706;
    --accent-2: #ea580c;
    --accent-3: #dc2626;
    --accent-4: #65a30d;
    --accent-5: #16a34a;
    --accent-6: #92400e;
}</style>
  <rect x="0" y="0" width="1.92E+3" height="1.08E+3" fill="#252a34" stroke="none" id="programmatic_background"/>
  <line id="HEADER_DECOR" x1="960.0" x2="1080.0" y1="135.0" y2="135.0" stroke="var(--accent-1)" stroke-width="6" stroke-linecap="round"/>
  <defs>
    <pattern id="svg7ab64352-napkin-hatch" patternUnits="userSpaceOnUse" width="12" height="12">
      <path d="M -3 12 L 12 -3 M 0 15 L 15 0" fill="none" stroke="var(--primary-text)" stroke-width="1" stroke-opacity="0.05"/>
    </pattern>
    <radialGradient id="svg7ab64352-universal-edge-vignette" cx="50%" cy="50%" r="72%">
      <stop offset="0%" stop-color="var(--background)" stop-opacity="0"/>
      <stop offset="72%" stop-color="var(--background)" stop-opacity="0.12"/>
      <stop offset="100%" stop-color="var(--primary-text)" stop-opacity="0.08"/>
    </radialGradient>
    <linearGradient id="svg7ab64352-universal-surface-sheen" x1="0%" y1="0%" x2="100%" y2="100%">
      <stop offset="0%" stop-color="var(--art-sheen)" stop-opacity="var(--art-sheen-opacity)"/>
      <stop offset="46%" stop-color="var(--art-sheen)" stop-opacity="0.035"/>
      <stop offset="100%" stop-color="var(--art-panel-tint)" stop-opacity="0.14"/>
    </linearGradient>
    <radialGradient id="svg7ab64352-universal-icon-aura" cx="50%" cy="42%" r="64%">
      <stop offset="0%" stop-color="var(--art-glow)" stop-opacity="var(--art-glow-opacity)"/>
      <stop offset="100%" stop-color="var(--background)" stop-opacity="0"/>
    </radialGradient>
    <filter id="svg7ab64352-text-glow" x="-20%" y="-20%" width="140%" height="140%">
      <feDropShadow dx="0" dy="0" stdDeviation="2" flood-color="#000000" flood-opacity="0.4"/>
    </filter>
    <filter id="svg7ab64352-shadow" x="-30%" y="-30%" width="160%" height="160%">
      <feDropShadow dx="0" dy="2" stdDeviation="3" flood-color="#000000" flood-opacity="0.08"/>
      <feDropShadow dx="0" dy="6" stdDeviation="10" flood-color="#000000" flood-opacity="0.12"/>
    </filter>
    <marker id="svg7ab64352-arrowhead" markerWidth="10" markerHeight="7" refX="9" refY="3.5" orient="auto" markerUnits="strokeWidth">
      <polygon points="0 0, 10 3.5, 0 7" fill="var(--muted-text)" opacity="0.6"/>
    </marker>
  </defs>
  <rect width="100%" height="100%" fill="var(--background)" id="CANVAS_BG"/>
  <rect width="100%" height="100%" fill="url(#svg7ab64352-napkin-hatch)"/>
  <rect id="UNIVERSAL_EDGE_VIGNETTE" width="100%" height="100%" fill="url(#svg7ab64352-universal-edge-vignette)" opacity="0.62"/>
  <text id="TITLE" x="960.0" y="59" text-anchor="middle" font-weight="700" font-size="63" fill="#f1f5f9" style="font-size: 60px; font-family: Inter, Segoe UI, Kalam, Roboto, Helvetica, Arial, sans-serif; font-weight: 700; letter-spacing:-1.2px;" data-final-font-size="60">
    <tspan x="960.0" dy="68.00px">Anatomy of the Comorian Ogre</tspan>
  </text>
  <rect id="TITLE_FRAME" x="134" y="59" width="1652" height="103" fill="none"/>
  <g id="DIAGRAM_SCALER" transform="translate(50.3, 35.1) scale(0.95)">
    <g transform="translate(345.0, 360.0)">
      <rect id="ITEM_1_BG" x="-270" y="-135" width="540" height="270" rx="22" fill="var(--accent-3)" stroke="var(--accent-1)" stroke-width="2" fill-opacity="0.4"/>
      <circle cx="-180" cy="0" r="50" fill="var(--accent-1)" opacity="0.15"/>
      <g transform="translate(-30.0, -15.0)">
        <text id="ITEM_1_HEAD" text-anchor="start" font-weight="bold" font-size="36" fill="var(--primary-text)" x="-100.0" y="-84.0" data-bg-id="ITEM_1_BG" fill-opacity="1.0" stroke="none" style="font-size: 30px; font-family: Inter, Segoe UI, Kalam, Roboto, Helvetica, Arial, sans-serif; font-weight: 700; letter-spacing:-0.4px;" data-final-font-size="30">
          <tspan x="-100.0" dy="36.57px">Avian Features</tspan>
        </text>
        <rect id="ITEM_1_HEAD_FRAME" x="-100" y="-84" width="380" height="48" fill="none"/>
        <text id="ITEM_1_BODY" text-anchor="start" font-size="24" fill="var(--primary-text)" x="-100.0" y="-8.0" data-bg-id="ITEM_1_BG" style="font-size: 24px; font-family: Inter, Segoe UI, Kalam, Roboto, Helvetica, Arial, sans-serif; font-weight: 400;" data-final-font-size="24">
          <tspan x="-100.0" dy="40.73px">Beings possess feathers and large</tspan>
          <tspan x="-100.0" dy="27.60px">bird wings</tspan>
        </text>
        <rect id="ITEM_1_BODY_FRAME" x="-100" y="-8" width="430" height="138" fill="none"/>
        <rect id="ITEM_1_TEXT_FRAME" x="-100" y="-4" width="380" height="128" fill="none"/>
      </g>
      <circle id="ITEM_1_PAD" cx="-186" cy="0.0" r="48" fill="var(--icon-pad-bg)" stroke="var(--primary-text)" opacity="0.9" fill-opacity="0.9" stroke-width="2"/>
      <circle id="ITEM_1_PAD_INNER" cx="-186" cy="0.0" r="37.44" fill="var(--accent-3)" fill-opacity="0.22"/>
      <circle cx="-186" cy="0.0" r="38" fill="none" stroke="var(--accent-1)" stroke-width="3" stroke-dasharray="6 4"/>
      <g id="ITEM_1_ICON" transform="translate(-224, -38)" data-icon-size="76" stroke-dasharray="6 4">
        <g transform="translate(-3.2203389830508473,-2.5762711864406738) scale(0.16101694915254236)" vector-effect="non-scaling-stroke" fill="#f1f5f9" fill-opacity="1.0" stroke="none">
          <path fill="#f1f5f9" d="M22.472 28.76c107.552 68.108 207.02 121.53 322.01 133.68c40.707 4.3 47.814 34.94 31.675 70.102c-26.52 57.774 16.43 143.547 112.342 195.465c-5.983 27.987-46.316 51.545-71.16 43.272c-20.682-43.168-52.9-88.738-87.806-76.376c-71.394 25.286-144.915 30.663-194.836 3.448c66.227-8.987 129.273-26.595 184.8-54.342C219.18 359.013 100.407 359.4 55.4 309.038c91.057 3.638 164.862-5.6 247.26-26.224C192.912 272.707 72.247 252.64 38.277 185.35c80.977 25.247 189.57 34.646 263.032 35.158C186.86 191.675 32.936 112.722 22.47 28.76z" vector-effect="non-scaling-stroke" stroke="none"/>
        </g>
      </g>
    </g>
    <g transform="translate(960.0, 360.0)">
      <rect id="ITEM_2_BG" x="-270" y="-135" width="540" height="270" rx="22" fill="var(--accent-4)" stroke="var(--accent-2)" stroke-width="2" fill-opacity="0.4"/>
      <circle cx="-180" cy="0" r="50" fill="var(--accent-1)" opacity="0.15"/>
      <g transform="translate(-30.0, -15.0)">
        <text id="ITEM_2_HEAD" text-anchor="start" font-weight="bold" font-size="36" fill="var(--primary-text)" x="-100.0" y="-84.0" data-bg-id="ITEM_2_BG" fill-opacity="1.0" stroke="none" style="font-size: 30px; font-family: Inter, Segoe UI, Kalam, Roboto, Helvetica, Arial, sans-serif; font-weight: 700; letter-spacing:-0.4px;" data-final-font-size="30">
          <tspan x="-100.0" dy="36.57px">Animal Traits</tspan>
        </text>
        <rect id="ITEM_2_HEAD_FRAME" x="-100" y="-84" width="380" height="48" fill="none"/>
        <text id="ITEM_2_BODY" text-anchor="start" font-size="24" fill="var(--primary-text)" x="-100.0" y="-8.0" data-bg-id="ITEM_2_BG" style="font-size: 24px; font-family: Inter, Segoe UI, Kalam, Roboto, Helvetica, Arial, sans-serif; font-weight: 400;" data-final-font-size="24">
          <tspan x="-100.0" dy="40.73px">Long tails and horns define</tspan>
          <tspan x="-100.0" dy="27.60px">their anatomy</tspan>
        </text>
        <rect id="ITEM_2_BODY_FRAME" x="-100" y="-8" width="430" height="138" fill="none"/>
        <rect id="ITEM_2_TEXT_FRAME" x="-100" y="-4" width="380" height="128" fill="none"/>
      </g>
      <circle id="ITEM_2_PAD" cx="-186" cy="0.0" r="48" fill="var(--icon-pad-bg)" stroke="var(--primary-text)" opacity="0.9" fill-opacity="0.9" stroke-width="2"/>
      <circle id="ITEM_2_PAD_INNER" cx="-186" cy="0.0" r="37.44" fill="var(--accent-4)" fill-opacity="0.22"/>
      <circle cx="-186" cy="0.0" r="38" fill="none" stroke="var(--accent-2)" stroke-width="3" stroke-dasharray="6 4"/>
      <g id="ITEM_2_ICON" transform="translate(-224, -38)" data-icon-size="76" stroke-dasharray="6 4">
        <g transform="translate(-8.769230769230768,-8.769230769230768) scale(2.923076923076923)">
          <path d="M17.09 3.42497C17.5662 3.86359 18.2609 3.97278 18.8501 3.70358C19.6106 3.35532 20.5123 3.64899 20.9227 4.37751C21.2409 4.94226 21.8658 5.2604 22.5097 5.18698C23.3417 5.09098 24.1079 5.64819 24.2735 6.46708C24.4016 7.10147 24.8985 7.59845 25.5329 7.72646C26.3537 7.89212 26.909 8.65829 26.813 9.49035C26.7396 10.1342 27.0577 10.7592 27.6225 11.0773C28.351 11.4877 28.6447 12.3894 28.2964 13.1499C28.0272 13.7391 28.1364 14.4319 28.575 14.91C29.1417 15.5256 29.1417 16.4725 28.575 17.09C28.1364 17.5662 28.0272 18.2609 28.2964 18.8501C28.6447 19.6106 28.351 20.5123 27.6225 20.9227C27.0577 21.2409 26.7396 21.8658 26.813 22.5097C26.909 23.3417 26.3518 24.1079 25.5329 24.2735C24.8985 24.4016 24.4016 24.8985 24.2735 25.5329C24.1079 26.3537 23.3417 26.909 22.5097 26.813C21.8658 26.7396 21.2409 27.0577 20.9227 27.6225C20.5123 28.351 19.6106 28.6447 18.8501 28.2964C18.2609 28.0272 17.5681 28.1364 17.09 28.575C16.4744 29.1417 15.5275 29.1417 14.91 28.575C14.4338 28.1364 13.7391 28.0272 13.1499 28.2964C12.3894 28.6447 11.4877 28.351 11.0773 27.6225C10.7592 27.0577 10.1342 26.7396 9.49035 26.813C8.65829 26.909 7.89212 26.3518 7.72646 25.5329C7.59845 24.8985 7.10147 24.4016 6.46708 24.2735C5.64631 24.1079 5.09098 23.3417 5.18698 22.5097C5.2604 21.8658 4.94226 21.2409 4.37751 20.9227C3.64899 20.5123 3.35532 19.6106 3.70358 18.8501C3.97278 18.2609 3.86359 17.5681 3.42497 17.09C2.85834 16.4744 2.85834 15.5275 3.42497 14.91C3.86359 14.4338 3.97278 13.7391 3.70358 13.1499C3.35532 12.3894 3.64899 11.4877 4.37751 11.0773C4.94226 10.7592 5.2604 10.1342 5.18698 9.49035C5.09098 8.65829 5.64819 7.89212 6.46708 7.72646C7.10147 7.59845 7.59845 7.10147 7.72646 6.46708C7.89212 5.64631 8.65829 5.09098 9.49035 5.18698C10.1342 5.2604 10.7592 4.94226 11.0773 4.37751C11.4877 3.64899 12.3894 3.35532 13.1499 3.70358C13.7391 3.97278 14.4319 3.86359 14.91 3.42497C15.5275 2.85834 16.4744 2.85834 17.09 3.42497Z" fill="#533566"/>
          <path d="M7.14536 11.2731L6.88319 12.5839C6.30164 15.4917 6.37304 18.4923 7.09224 21.3691C7.63934 23.5575 9.47542 25.1844 11.7137 25.4642L13.2712 25.6589C15.0833 25.8854 16.9166 25.8854 18.7287 25.6589L20.2862 25.4642C22.5245 25.1844 24.3606 23.5575 24.9077 21.3691C25.6269 18.4923 25.6983 15.4917 25.1168 12.5839L24.8408 11.2041C24.3378 8.68936 22.2923 6.77232 19.7503 6.43338L19.2364 6.36486C17.4192 6.12258 15.5789 6.10837 13.7583 6.32256L12.3278 6.49085C9.747 6.79447 7.65499 8.72493 7.14536 11.2731Z" fill="#CA0B4A"/>
          <path d="M14 17C14 15.5 15 13.5 16 13.5C17 13.5 18 15.5 18 17C18 18.5 17.5 19.5 16 19.5C14.5 19.5 14 18.5 14 17Z" fill="#990838"/>
          <path d="M21 20H11C11 20 11 25 16 25C21 25 21 20 21 20Z" fill="#6B438B"/>
          <path d="M13 21.8394V20H19V21.8394C19 22.0373 18.7434 22.115 18.6336 21.9504L18 21H14L13.3664 21.9504C13.2566 22.115 13 22.0373 13 21.8394Z" fill="white"/>
          <path d="M14 23.8041V23.309C14 23.1384 14.1384 23 14.309 23C14.4261 23 14.5331 23.0661 14.5854 23.1708L14.8675 23.7351C14.9466 23.8933 14.9156 24.0844 14.7906 24.2094C14.6301 24.3699 14.3699 24.3699 14.2094 24.2094L14.1385 24.1385C14.0498 24.0498 14 23.9295 14 23.8041Z" fill="white"/>
          <path d="M18 23.309V23.8041C18 23.9295 17.9502 24.0498 17.8615 24.1385L17.7906 24.2094C17.6301 24.3699 17.3699 24.3699 17.2094 24.2094C17.0844 24.0844 17.0534 23.8933 17.1325 23.7351L17.4146 23.1708C17.4669 23.0661 17.5739 23 17.691 23C17.8616 23 18 23.1384 18 23.309Z" fill="white"/>
          <path d="M7.50003 10.5C7.50003 10.5 9.00003 10.5 10 9.5C11 8.5 11 7 11 7L6.13389 4.10853C5.50458 3.73459 4.76722 4.39136 5.06616 5.05957L7.50003 10.5Z" fill="#FCD53F"/>
          <path d="M24.6 10.5C24.6 10.5 23.1 10.5 22.1 9.5C21.1 8.5 21.1 7 21.1 7L25.9661 4.10853C26.5954 3.73459 27.3328 4.39136 27.0338 5.05957L24.6 10.5Z" fill="#FCD53F"/>
          <path d="M11 19C12.6569 19 14 17.6569 14 16C14 14.3431 12.6569 13 11 13C9.34315 13 8 14.3431 8 16C8 17.6569 9.34315 19 11 19Z" fill="white"/>
          <path d="M21 19C22.6569 19 24 17.6569 24 16C24 14.3431 22.6569 13 21 13C19.3431 13 18 14.3431 18 16C18 17.6569 19.3431 19 21 19Z" fill="white"/>
          <path d="M9.75 17C10.1642 17 10.5 16.6642 10.5 16.25C10.5 15.8358 10.1642 15.5 9.75 15.5C9.33579 15.5 9 15.8358 9 16.25C9 16.6642 9.33579 17 9.75 17Z" fill="#533566"/>
          <path d="M22.25 17C22.6642 17 23 16.6642 23 16.25C23 15.8358 22.6642 15.5 22.25 15.5C21.8358 15.5 21.5 15.8358 21.5 16.25C21.5 16.6642 21.8358 17 22.25 17Z" fill="#533566"/>
          <path d="M10.5856 11.4926C12.0176 11.244 13.1219 11.8612 13.2554 11.9361C13.4963 12.0712 13.801 11.9854 13.9361 11.7446C14.0712 11.5037 13.9855 11.199 13.7446 11.0639C13.5578 10.9591 12.1969 10.1979 10.4145 10.5073C8.65509 10.8128 7.74128 12.0143 7.61211 12.1841L7.60371 12.1951C7.43535 12.414 7.47629 12.7279 7.69517 12.8963C7.91405 13.0647 8.22797 13.0237 8.39634 12.8048L8.40257 12.7966C8.4982 12.6707 9.21168 11.7311 10.5856 11.4926Z" fill="#321B41"/>
          <path d="M21.4145 11.4926C19.9825 11.244 18.8782 11.8612 18.7446 11.9361C18.5038 12.0712 18.199 11.9854 18.0639 11.7446C17.9288 11.5037 18.0146 11.199 18.2554 11.0639C18.4422 10.9591 19.8032 10.1979 21.5855 10.5073C23.345 10.8128 24.2588 12.0143 24.3879 12.1841L24.3963 12.1951C24.5647 12.414 24.5238 12.7279 24.3049 12.8963C24.086 13.0647 23.7721 13.0237 23.6037 12.8048L23.5975 12.7966C23.5018 12.6707 22.7884 11.7311 21.4145 11.4926Z" fill="#321B41"/>
        </g>
      </g>
    </g>
    <g transform="translate(1575.0, 360.0)">
      <rect id="ITEM_3_BG" x="-270" y="-135" width="540" height="270" rx="22" fill="var(--accent-5)" stroke="var(--accent-3)" stroke-width="2" fill-opacity="0.4"/>
      <circle cx="-180" cy="0" r="50" fill="var(--accent-1)" opacity="0.15"/>
      <g transform="translate(-30.0, -15.0)">
        <text id="ITEM_3_HEAD" text-anchor="start" font-weight="bold" font-size="36" fill="var(--primary-text)" x="-100.0" y="-84.0" data-bg-id="ITEM_3_BG" fill-opacity="1.0" stroke="none" style="font-size: 30px; font-family: Inter, Segoe UI, Kalam, Roboto, Helvetica, Arial, sans-serif; font-weight: 700; letter-spacing:-0.4px;" data-final-font-size="30">
          <tspan x="-100.0" dy="36.57px">Ocular Details</tspan>
        </text>
        <rect id="ITEM_3_HEAD_FRAME" x="-100" y="-84" width="380" height="48" fill="none"/>
        <text id="ITEM_3_BODY" text-anchor="start" font-size="24" fill="var(--primary-text)" x="-100.0" y="-8.0" data-bg-id="ITEM_3_BG" style="font-size: 24px; font-family: Inter, Segoe UI, Kalam, Roboto, Helvetica, Arial, sans-serif; font-weight: 400;" data-final-font-size="24">
          <tspan x="-100.0" dy="40.73px">Oversized or glaring eyes signal</tspan>
          <tspan x="-100.0" dy="27.60px">their nature</tspan>
        </text>
        <rect id="ITEM_3_BODY_FRAME" x="-100" y="-8" width="430" height="138" fill="none"/>
        <rect id="ITEM_3_TEXT_FRAME" x="-100" y="-4" width="380" height="128" fill="none"/>
      </g>
      <circle id="ITEM_3_PAD" cx="-186" cy="0.0" r="48" fill="var(--icon-pad-bg)" stroke="var(--primary-text)" opacity="0.9" fill-opacity="0.9" stroke-width="2"/>
      <circle id="ITEM_3_PAD_INNER" cx="-186" cy="0.0" r="37.44" fill="var(--accent-5)" fill-opacity="0.22"/>
      <circle cx="-186" cy="0.0" r="38" fill="none" stroke="var(--accent-3)" stroke-width="3" stroke-dasharray="6 4"/>
      <g id="ITEM_3_ICON" transform="translate(-224, -38)" data-icon-size="76" stroke-dasharray="6 4">
        <g transform="translate(0.0,0.0) scale(5.428571428571429)" vector-effect="non-scaling-stroke" stroke-width="2.62" stroke-linecap="round" stroke-linejoin="round" stroke-opacity="1.0">
          <path id="Vector" fill="none" d="M6 11.5a5.5 5.5 0 1 0 0 -11 5.5 5.5 0 0 0 0 11Z" vector-effect="non-scaling-stroke" stroke="#f1f5f9"/>
          <path id="Vector_2" stroke="#f1f5f9" d="M6 11.5a5.5 5.5 0 1 0 0 -11 5.5 5.5 0 0 0 0 11Z" vector-effect="non-scaling-stroke" fill="none"/>
          <path id="Vector_3" stroke="#f1f5f9" d="M13.5 13.5 10 10" vector-effect="non-scaling-stroke" fill="none"/>
        </g>
      </g>
    </g>
    <g transform="translate(652.5, 720.0)">
      <rect id="ITEM_4_BG" x="-270" y="-135" width="540" height="270" rx="22" fill="var(--accent-6)" stroke="var(--accent-4)" stroke-width="2" fill-opacity="0.4"/>
      <circle cx="-180" cy="0" r="50" fill="var(--accent-1)" opacity="0.15"/>
      <g transform="translate(-30.0, -15.0)">
        <text id="ITEM_4_HEAD" text-anchor="start" font-weight="bold" font-size="36" fill="var(--primary-text)" x="-100.0" y="-84.0" data-bg-id="ITEM_4_BG" fill-opacity="1.0" stroke="none" style="font-size: 30px; font-family: Inter, Segoe UI, Kalam, Roboto, Helvetica, Arial, sans-serif; font-weight: 700; letter-spacing:-0.4px;" data-final-font-size="30">
          <tspan x="-100.0" dy="36.57px">Human Disguise</tspan>
        </text>
        <rect id="ITEM_4_HEAD_FRAME" x="-100" y="-84" width="380" height="48" fill="none"/>
        <text id="ITEM_4_BODY" text-anchor="start" font-size="24" fill="var(--primary-text)" x="-100.0" y="-8.0" data-bg-id="ITEM_4_BG" style="font-size: 24px; font-family: Inter, Segoe UI, Kalam, Roboto, Helvetica, Arial, sans-serif; font-weight: 400;" data-final-font-size="24">
          <tspan x="-100.0" dy="40.73px">Creatures maintain a partly human</tspan>
          <tspan x="-100.0" dy="27.60px">appearance</tspan>
        </text>
        <rect id="ITEM_4_BODY_FRAME" x="-100" y="-8" width="430" height="138" fill="none"/>
        <rect id="ITEM_4_TEXT_FRAME" x="-100" y="-4" width="380" height="128" fill="none"/>
      </g>
      <circle id="ITEM_4_PAD" cx="-186" cy="0.0" r="48" fill="var(--icon-pad-bg)" stroke="var(--primary-text)" opacity="0.9" fill-opacity="0.9" stroke-width="2"/>
      <circle id="ITEM_4_PAD_INNER" cx="-186" cy="0.0" r="37.44" fill="var(--accent-6)" fill-opacity="0.22"/>
      <circle cx="-186" cy="0.0" r="38" fill="none" stroke="var(--accent-4)" stroke-width="3" stroke-dasharray="6 4"/>
      <g id="ITEM_4_ICON" transform="translate(-224, -38)" data-icon-size="76" stroke-dasharray="6 4">
        <g transform="translate(-3.2203389830508473,-3.220338983050846) scale(3.4350282485875705)" vector-effect="non-scaling-stroke" stroke-width="2.62" stroke-linecap="round" stroke-linejoin="round" stroke-opacity="1.0">
          <path d="M5 14.5h-.222c-1.535 0 -2.778 -1.12 -2.778 -2.5s1.243 -2.5 2.778 -2.5h.222" vector-effect="non-scaling-stroke" fill="none" stroke="#f1f5f9"/>
          <path d="M19 14.5h.222c1.534 0 2.778 -1.12 2.778 -2.5s-1.244 -2.5 -2.778 -2.5h-.222" vector-effect="non-scaling-stroke" fill="none" stroke="#f1f5f9"/>
          <path d="M9 10h6" vector-effect="non-scaling-stroke" fill="none" stroke="#f1f5f9"/>
          <path d="M9 14h6" vector-effect="non-scaling-stroke" fill="none" stroke="#f1f5f9"/>
          <path d="M12.55 18.843l5 -1.429a2 2 0 0 0 1.45 -1.923v-6.981a2 2 0 0 0 -1.45 -1.923l-5 -1.429a2 2 0 0 0 -1.1 0l-5 1.429a2 2 0 0 0 -1.45 1.922v6.982a2 2 0 0 0 1.45 1.923l5 1.429a2 2 0 0 0 1.1 0z" vector-effect="non-scaling-stroke" fill="none" stroke="#f1f5f9"/>
        </g>
      </g>
    </g>
    <g transform="translate(1267.5, 720.0)">
      <rect id="ITEM_5_BG" x="-270" y="-135" width="540" height="270" rx="22" fill="var(--accent-1)" stroke="var(--accent-5)" stroke-width="2" fill-opacity="0.4"/>
      <circle cx="-180" cy="0" r="50" fill="var(--accent-1)" opacity="0.15"/>
      <g transform="translate(-30.0, -15.0)">
        <text id="ITEM_5_HEAD" text-anchor="start" font-weight="bold" font-size="36" fill="var(--primary-text)" x="-100.0" y="-84.0" data-bg-id="ITEM_5_BG" fill-opacity="1.0" stroke="none" style="font-size: 30px; font-family: Inter, Segoe UI, Kalam, Roboto, Helvetica, Arial, sans-serif; font-weight: 700; letter-spacing:-0.4px;" data-final-font-size="30">
          <tspan x="-100.0" dy="36.57px">Hybrid Nature</tspan>
        </text>
        <rect id="ITEM_5_HEAD_FRAME" x="-100" y="-84" width="380" height="48" fill="none"/>
        <text id="ITEM_5_BODY" text-anchor="start" font-size="24" fill="var(--primary-text)" x="-100.0" y="-8.0" data-bg-id="ITEM_5_BG" style="font-size: 24px; font-family: Inter, Segoe UI, Kalam, Roboto, Helvetica, Arial, sans-serif; font-weight: 400;" data-final-font-size="24">
          <tspan x="-100.0" dy="40.73px">They occupy the border between</tspan>
          <tspan x="-100.0" dy="27.60px">bird and beast</tspan>
        </text>
        <rect id="ITEM_5_BODY_FRAME" x="-100" y="-8" width="430" height="138" fill="none"/>
        <rect id="ITEM_5_TEXT_FRAME" x="-100" y="-4" width="380" height="128" fill="none"/>
      </g>
      <circle id="ITEM_5_PAD" cx="-186" cy="0.0" r="48" fill="var(--icon-pad-bg)" stroke="var(--primary-text)" opacity="0.9" fill-opacity="0.9" stroke-width="2"/>
      <circle id="ITEM_5_PAD_INNER" cx="-186" cy="0.0" r="37.44" fill="var(--accent-1)" fill-opacity="0.22"/>
      <circle cx="-186" cy="0.0" r="38" fill="none" stroke="var(--accent-5)" stroke-width="3" stroke-dasharray="6 4"/>
      <g id="ITEM_5_ICON" transform="translate(-224, -38)" data-icon-size="76" stroke-dasharray="6 4">
        <g transform="translate(-5.380530973451328,-5.044247787610622) scale(2.690265486725664)">
          <path d="M3 15L4 11.9566C4.80297 11.3547 5.79176 11 6.86 11H10.4375V16H4L3 15Z" fill="#D3D3D3"/>
          <path d="M24.8116 25.9936C25.9536 25.9936 26.2622 24.8158 25.809 24.1908L23.8555 21.8554L18.0158 21.8553C18.0158 23.8439 19.0318 25.9936 22.0773 25.9936H24.8116Z" fill="#D3D3D3"/>
          <path d="M17.0523 10.1784H17.03C16.28 10.1784 15.78 9.38678 16.11 8.70542L19 6H30.24C30.247 7.61938 29.3258 9.02603 27.9759 9.71934C27.8955 11.4117 26.6337 12.7163 25 12.9577C24.9938 14.8614 23.3199 16 22.25 16H17.13C16.34 16 15.88 15.2146 16.35 14.5734L17.2025 12.9979H17.18C16.39 12.9979 15.89 12.2325 16.28 11.5411L17.0523 10.1784Z" fill="#6D4534"/>
          <path d="M11.9557 17L9 22H17L11.9557 17Z" fill="#6D4534"/>
          <path d="M2.71094 16.8516C3.21265 16.5672 4.00878 16 4.00878 16L3.99878 11.9531C3.47179 12.3344 2 13.6094 2 16C2 17.1395 2.20923 17.1359 2.71094 16.8516Z" fill="#F9C23C"/>
          <path d="M10.5938 22.875C10.1249 22.2753 9.26562 22.2109 8.64062 22.5781C8.03586 22.9334 7.76575 23.6328 7.88281 24.1328C7.92468 24.3117 7.64905 24.4649 7.52344 24.3281C7.19894 23.9704 7 23.5463 7 23.0203C7 21.8946 7.91069 20.9793 9.0412 21.0004C9.84722 21.0109 10.559 21.5369 10.8731 22.2839C10.9359 22.4417 10.9777 22.589 10.9987 22.7362C11.0196 22.9151 10.7697 23.1001 10.5938 22.875Z" fill="#F9C23C"/>
          <path d="M19 16L23.9766 22C23.9766 22 18.8882 22 17.1204 22C12.6356 22 8.99994 18.4128 8.99994 14C8.99994 9.58727 12.6356 6.00002 17.1204 6.00002C17.7772 6.00002 18.4077 5.99998 19 6.00002V16Z" fill="#A56953"/>
          <path d="M6 13.5156C6 13.7918 5.77614 14.0156 5.5 14.0156C5.22386 14.0156 5 13.7918 5 13.5156C5 13.2395 5.22386 13.0156 5.5 13.0156C5.77614 13.0156 6 13.2395 6 13.5156Z" fill="#1C1C1C"/>
        </g>
      </g>
    </g>
  </g>
</svg>
