<?xml version='1.0' encoding='utf-8'?>
<svg xmlns="http://www.w3.org/2000/svg" width="1920" height="1080" viewBox="0 0 1920 1080" data-theme="light">
  <style>
        @font-face {
            font-family: 'Inter';
            src: url('assets/fonts/Inter-Regular.ttf') format('truetype');
            font-weight: 400;
            font-style: normal;
            font-display: swap;
        }
        @font-face {
            font-family: 'Inter';
            src: url('assets/fonts/Inter-Bold.ttf') format('truetype');
            font-weight: 600;
            font-style: normal;
            font-display: swap;
        }
        @font-face {
            font-family: 'Inter';
            src: url('assets/fonts/Inter-Bold.ttf') format('truetype');
            font-weight: 800;
            font-style: normal;
            font-display: swap;
        }
        
:root {
    --background: #f8fafc;
    --panel: #ffffff;
    --primary-text: #0f172a;
    --muted-text: #64748b;
    --inverse-text: #ffffff;
    --border: #e2e8f0;
    --shadow-color: #000000;
    --icon-pad-bg: #1e293b;
    --art-glow: #0891b2;
    --art-glow-opacity: 0.10;
    --art-sheen: #ffffff;
    --art-sheen-opacity: 0.34;
    --art-shadow: #0f172a;
    --art-shadow-opacity: 0.14;
    --art-muted-line: #94a3b8;
    --art-panel-tint: #f1f5f9;
    --font-family: 'Inter', 'Segoe UI', 'Kalam', Roboto, Helvetica, Arial, sans-serif;
    --radius-xl: 16px;
    --font-family-headline: 'Inter', 'Segoe UI', 'Kalam', Roboto, Helvetica, Arial, sans-serif;
    --font-family-body: 'Inter', 'Segoe UI', 'Kalam', Roboto, Helvetica, Arial, sans-serif;
    --font-heading: 'Inter', 'Segoe UI', 'Kalam', Roboto, Helvetica, Arial, sans-serif;
    --font-body: 'Inter', 'Segoe UI', 'Kalam', Roboto, Helvetica, Arial, sans-serif;
    --font-size-h1: 56px;
    --font-size-h2: 40px;
    --font-size-h3: 28px;
    --font-size-body: 24px;
    --font-size-caption: 18px;
    --secondary-text: var(--muted-text);
    --panel-border: var(--border);
    --font-weight-normal: 400;
    --font-weight-medium: 500;
    --font-weight-semibold: 600;
    --font-weight-bold: 700;
    --spacing-gutter-pct: 0.07;
    --spacing-top-pct: 0.15;
    --spacing-bottom-pct: 0.07;
    --spacing-title-y-pct: 0.055;
    --accent-1: #0891b2;
    --accent-2: #db2777;
    --accent-3: #ca8a04;
    --accent-4: #65a30d;
    --accent-5: #ea580c;
    --accent-6: #9333ea;
}
:root[data-theme="dark"] {
    --background: #0f172a;
    --panel: #1e293b;
    --primary-text: #f1f5f9;
    --muted-text: #94a3b8;
    --inverse-text: #0f172a;
    --border: #334155;
    --shadow-color: #000000;
    --icon-pad-bg: #1e293b;
    --art-glow: #7dd3fc;
    --art-glow-opacity: 0.18;
    --art-sheen: #ffffff;
    --art-sheen-opacity: 0.18;
    --art-shadow: #000000;
    --art-shadow-opacity: 0.28;
    --art-muted-line: #64748b;
    --art-panel-tint: #1e293b;
    --accent-1: #22d3ee;
    --accent-2: #f472b6;
    --accent-3: #facc15;
    --accent-4: #a3e635;
    --accent-5: #fb923c;
    --accent-6: #c084fc;
}
:root[data-theme="light"] {
    --background: #f8fafc;
    --panel: #ffffff;
    --primary-text: #0f172a;
    --muted-text: #64748b;
    --inverse-text: #ffffff;
    --border: #e2e8f0;
    --shadow-color: #000000;
    --icon-pad-bg: #1e293b;
    --art-glow: #0891b2;
    --art-glow-opacity: 0.10;
    --art-sheen: #ffffff;
    --art-sheen-opacity: 0.34;
    --art-shadow: #0f172a;
    --art-shadow-opacity: 0.14;
    --art-muted-line: #94a3b8;
    --art-panel-tint: #f1f5f9;
    --accent-1: #0891b2;
    --accent-2: #db2777;
    --accent-3: #ca8a04;
    --accent-4: #65a30d;
    --accent-5: #ea580c;
    --accent-6: #9333ea;
}</style>
  <rect x="0" y="0" width="1.92E+3" height="1.08E+3" fill="#252a34" stroke="none" id="programmatic_background"/>
  <line id="HEADER_DECOR" x1="960.0" x2="1080.0" y1="135.0" y2="135.0" stroke="var(--accent-1)" stroke-width="6" stroke-linecap="round"/>
  <defs>
    <pattern id="svg6fc9ca03-napkin-hatch" patternUnits="userSpaceOnUse" width="12" height="12">
      <path d="M -3 12 L 12 -3 M 0 15 L 15 0" fill="none" stroke="var(--primary-text)" stroke-width="1" stroke-opacity="0.05"/>
    </pattern>
    <filter id="svg6fc9ca03-soft-shadow" x="-30%" y="-30%" width="160%" height="160%">
      <feDropShadow dx="0" dy="3" stdDeviation="6" flood-color="#000000" flood-opacity="0.20"/>
    </filter>
    <radialGradient id="svg6fc9ca03-universal-edge-vignette" cx="50%" cy="50%" r="72%">
      <stop offset="0%" stop-color="var(--background)" stop-opacity="0"/>
      <stop offset="72%" stop-color="var(--background)" stop-opacity="0.12"/>
      <stop offset="100%" stop-color="var(--primary-text)" stop-opacity="0.08"/>
    </radialGradient>
    <linearGradient id="svg6fc9ca03-universal-surface-sheen" x1="0%" y1="0%" x2="100%" y2="100%">
      <stop offset="0%" stop-color="var(--art-sheen)" stop-opacity="var(--art-sheen-opacity)"/>
      <stop offset="46%" stop-color="var(--art-sheen)" stop-opacity="0.035"/>
      <stop offset="100%" stop-color="var(--art-panel-tint)" stop-opacity="0.14"/>
    </linearGradient>
    <radialGradient id="svg6fc9ca03-universal-icon-aura" cx="50%" cy="42%" r="64%">
      <stop offset="0%" stop-color="var(--art-glow)" stop-opacity="var(--art-glow-opacity)"/>
      <stop offset="100%" stop-color="var(--background)" stop-opacity="0"/>
    </radialGradient>
    <filter id="svg6fc9ca03-text-glow" x="-20%" y="-20%" width="140%" height="140%">
      <feDropShadow dx="0" dy="0" stdDeviation="2" flood-color="#000000" flood-opacity="0.4"/>
    </filter>
    <filter id="svg6fc9ca03-shadow" x="-30%" y="-30%" width="160%" height="160%">
      <feDropShadow dx="0" dy="2" stdDeviation="3" flood-color="#000000" flood-opacity="0.08"/>
      <feDropShadow dx="0" dy="6" stdDeviation="10" flood-color="#000000" flood-opacity="0.12"/>
    </filter>
    <marker id="svg6fc9ca03-arrowhead" markerWidth="10" markerHeight="7" refX="9" refY="3.5" orient="auto" markerUnits="strokeWidth">
      <polygon points="0 0, 10 3.5, 0 7" fill="var(--muted-text)" opacity="0.6"/>
    </marker>
  </defs>
  <rect id="CANVAS_BG" width="100%" height="100%" fill="var(--background)"/>
  <rect width="100%" height="100%" fill="url(#svg6fc9ca03-napkin-hatch)"/>
  <rect id="UNIVERSAL_EDGE_VIGNETTE" width="100%" height="100%" fill="url(#svg6fc9ca03-universal-edge-vignette)" opacity="0.62"/>
  <text id="TITLE" x="960.0" y="59" text-anchor="middle" font-size="56" font-weight="800" fill="#0f172a" style="font-size: 60px; font-family: Inter, Segoe UI, Kalam, Roboto, Helvetica, Arial, sans-serif; font-weight: 700; letter-spacing:-1.2px;" data-final-font-size="60">
    <tspan x="960.0" dy="68.00px">Folklore vs. Biological Reality</tspan>
  </text>
  <rect id="TITLE_FRAME" x="134" y="59" width="1652" height="103" fill="none"/>
  <line x1="687.0" y1="434.0" x2="768.0" y2="434.0" stroke="var(--muted-text)" stroke-width="4" stroke-dasharray="10 9" opacity="0.8"/>
  <circle cx="727.5" cy="434.0" r="34" fill="var(--panel)" stroke="var(--muted-text)" stroke-width="2"/>
  <text x="727.5" y="444.0" text-anchor="middle" font-size="34" font-weight="900" fill="var(--muted-text)">VS</text>
  <line x1="1152.0" y1="434.0" x2="1233.0" y2="434.0" stroke="var(--muted-text)" stroke-width="4" stroke-dasharray="10 9" opacity="0.8"/>
  <circle cx="1192.5" cy="434.0" r="34" fill="var(--panel)" stroke="var(--muted-text)" stroke-width="2"/>
  <text x="1192.5" y="444.0" text-anchor="middle" font-size="34" font-weight="900" fill="var(--muted-text)">VS</text>
  <line x1="882.0" y1="824.0" x2="1038.0" y2="824.0" stroke="var(--muted-text)" stroke-width="4" stroke-dasharray="10 9" opacity="0.8"/>
  <circle cx="960.0" cy="824.0" r="34" fill="var(--panel)" stroke="var(--muted-text)" stroke-width="2"/>
  <text x="960.0" y="834.0" text-anchor="middle" font-size="34" font-weight="900" fill="var(--muted-text)">VS</text>
  <g transform="translate(495.0, 280.0)" filter="url(#svg6fc9ca03-soft-shadow)">
    <rect id="ITEM_1_BG" x="-200.0" y="0" width="400.0" height="360" rx="26" fill="var(--panel)" fill-opacity="0.95" stroke="var(--accent-1)" stroke-width="3"/>
    <rect x="-184.0" y="12" width="368.0" height="8" rx="4" fill="var(--accent-1)" fill-opacity="0.55"/>
    <circle id="ITEM_1_PAD" cx="0" cy="74" r="46" fill="var(--icon-pad-bg)" stroke="var(--primary-text)" opacity="0.9" fill-opacity="0.9" stroke-width="2"/>
    <circle id="ITEM_1_PAD_INNER" cx="0" cy="74" r="35.88" fill="var(--accent-3)" fill-opacity="0.22"/>
    <circle cx="0" cy="74" r="36" fill="none" stroke="var(--accent-1)" stroke-width="3" stroke-dasharray="6 4"/>
    <g id="ITEM_1_ICON" transform="translate(-34, 40)" data-icon-size="68" stroke-dasharray="6 4">
      <g transform="translate(-12.920000000000003,-10.160000000000004) scale(2.7600000000000002)" vector-effect="non-scaling-stroke" fill="#f1f5f9" fill-opacity="1.0" stroke="none">
        <path fill="#f1f5f9" d="M16 22h14v2H16z" vector-effect="non-scaling-stroke" stroke="none"/>
        <rect width="6" height="6" x="4" y="20" fill="#f1f5f9" rx="1" vector-effect="non-scaling-stroke" stroke="none"/>
        <path fill="#f1f5f9" d="M16 8h14v2H16zm-6.5 4h-5a.5.5 0 0 1-.447-.724l2.5-5.022a.52.52 0 0 1 .894 0l2.5 5.023A.5.5 0 0 1 9.5 12" vector-effect="non-scaling-stroke" stroke="none"/>
      </g>
    </g>
    <text id="ITEM_1_HEAD" x="0.0" y="138.0" text-anchor="middle" font-size="44" font-weight="800" fill="var(--primary-text)" data-bg-id="ITEM_1_BG" fill-opacity="1.0" style="font-size: 30px; font-family: Inter, Segoe UI, Kalam, Roboto, Helvetica, Arial, sans-serif; font-weight: 700; letter-spacing:-0.4px;" data-final-font-size="30">
      <tspan x="0.0" dy="42.25px">Cadejos Legend</tspan>
    </text>
    <rect id="ITEM_1_HEAD_FRAME" x="-165.0" y="138" width="330.0" height="68" fill="none"/>
    <text id="ITEM_1_BODY" x="0.0" y="206.0" text-anchor="middle" font-size="27" fill="var(--primary-text)" data-bg-id="ITEM_1_BG" style="font-size: 26px; font-family: Inter, Segoe UI, Kalam, Roboto, Helvetica, Arial, sans-serif; font-weight: 400;" data-final-font-size="26">
      <tspan x="0.0" dy="39.64px">Spectral dog haunting lonely</tspan>
      <tspan x="0.0" dy="29.90px">night roads</tspan>
    </text>
    <rect id="ITEM_1_BODY_FRAME" x="-190.0" y="206" width="380" height="154" fill="none"/>
  </g>
  <g transform="translate(960.0, 280.0)" filter="url(#svg6fc9ca03-soft-shadow)">
    <rect id="ITEM_2_BG" x="-200.0" y="0" width="400.0" height="360" rx="26" fill="var(--panel)" fill-opacity="0.95" stroke="var(--accent-2)" stroke-width="3"/>
    <rect x="-184.0" y="12" width="368.0" height="8" rx="4" fill="var(--accent-2)" fill-opacity="0.55"/>
    <circle id="ITEM_2_PAD" cx="0" cy="74" r="46" fill="var(--icon-pad-bg)" stroke="var(--primary-text)" opacity="0.9" fill-opacity="0.9" stroke-width="2"/>
    <circle id="ITEM_2_PAD_INNER" cx="0" cy="74" r="35.88" fill="var(--accent-4)" fill-opacity="0.22"/>
    <circle cx="0" cy="74" r="36" fill="none" stroke="var(--accent-2)" stroke-width="3" stroke-dasharray="6 4"/>
    <g id="ITEM_2_ICON" transform="translate(-34, 40)" data-icon-size="68" stroke-dasharray="6 4">
      <g transform="translate(-7.005714285714289,-18.538571428571434) scale(2.562857142857143)">
        <path d="M5.5 11C5.22386 11 5 11.2239 5 11.5V13H9V11.5C9 11.2239 8.77614 11 8.5 11H5.5Z" fill="#D3D3D3"/>
        <path d="M21.5 11C21.2239 11 21 11.2239 21 11.5V13H27V11.5C27 11.2239 26.7761 11 26.5 11H21.5Z" fill="#D3D3D3"/>
        <path d="M2 14C2 12.8954 2.89543 12 4 12H28C29.1046 12 30 12.8954 30 14V16.5L28 22L30 27.5V28C30 29.1046 29.1046 30 28 30H4C2.89543 30 2 29.1046 2 28V27.5L3.5 22L2 16.5V14Z" fill="#E6E6E6"/>
        <path d="M2 16.5C2 16.2239 2.22386 16 2.5 16H29.5C29.7761 16 30 16.2239 30 16.5V27.5C30 27.7761 29.7761 28 29.5 28H2.5C2.22386 28 2 27.7761 2 27.5V16.5Z" fill="#533566"/>
        <path d="M22 22C22 25.3137 19.3137 28 16 28C12.6863 28 10 25.3137 10 22C10 18.6863 12.6863 16 16 16C19.3137 16 22 18.6863 22 22Z" fill="#321B41"/>
        <path d="M16 27C18.7614 27 21 24.7614 21 22C21 19.2386 18.7614 17 16 17C13.2386 17 11 19.2386 11 22C11 24.7614 13.2386 27 16 27ZM16 29C12.134 29 9 25.866 9 22C9 18.134 12.134 15 16 15C19.866 15 23 18.134 23 22C23 25.866 19.866 29 16 29Z" fill="#9B9B9B"/>
        <path d="M18.5 22C18.5 23.3807 17.3807 24.5 16 24.5C14.6193 24.5 13.5 23.3807 13.5 22C13.5 20.6193 14.6193 19.5 16 19.5C17.3807 19.5 18.5 20.6193 18.5 22Z" fill="#433B6B"/>
        <path d="M19.0825 19.875C19.4967 20.5924 19.4448 21.3979 18.9665 21.674C18.4882 21.9501 17.7647 21.5924 17.3505 20.875C16.9363 20.1575 16.9882 19.3521 17.4665 19.0759C17.9448 18.7998 18.6683 19.1575 19.0825 19.875Z" fill="white"/>
      </g>
    </g>
    <text id="ITEM_2_HEAD" x="0.0" y="138.0" text-anchor="middle" font-size="44" font-weight="800" fill="var(--primary-text)" data-bg-id="ITEM_2_BG" fill-opacity="1.0" style="font-size: 30px; font-family: Inter, Segoe UI, Kalam, Roboto, Helvetica, Arial, sans-serif; font-weight: 700; letter-spacing:-0.4px;" data-final-font-size="30">
      <tspan x="0.0" dy="42.25px">Native Felids</tspan>
    </text>
    <rect id="ITEM_2_HEAD_FRAME" x="-165.0" y="138" width="330.0" height="68" fill="none"/>
    <text id="ITEM_2_BODY" x="0.0" y="206.0" text-anchor="middle" font-size="27" fill="var(--primary-text)" data-bg-id="ITEM_2_BG" style="font-size: 26px; font-family: Inter, Segoe UI, Kalam, Roboto, Helvetica, Arial, sans-serif; font-weight: 400;" data-final-font-size="26">
      <tspan x="0.0" dy="39.64px">Real jaguars and pumas</tspan>
      <tspan x="0.0" dy="29.90px">in dense forests</tspan>
    </text>
    <rect id="ITEM_2_BODY_FRAME" x="-190.0" y="206" width="380" height="154" fill="none"/>
  </g>
  <g transform="translate(1425.0, 280.0)" filter="url(#svg6fc9ca03-soft-shadow)">
    <rect id="ITEM_3_BG" x="-200.0" y="0" width="400.0" height="360" rx="26" fill="var(--panel)" fill-opacity="0.95" stroke="var(--accent-3)" stroke-width="3"/>
    <rect x="-184.0" y="12" width="368.0" height="8" rx="4" fill="var(--accent-3)" fill-opacity="0.55"/>
    <circle id="ITEM_3_PAD" cx="0" cy="74" r="46" fill="var(--icon-pad-bg)" stroke="var(--primary-text)" opacity="0.9" fill-opacity="0.9" stroke-width="2"/>
    <circle id="ITEM_3_PAD_INNER" cx="0" cy="74" r="35.88" fill="var(--accent-5)" fill-opacity="0.22"/>
    <circle cx="0" cy="74" r="36" fill="none" stroke="var(--accent-3)" stroke-width="3" stroke-dasharray="6 4"/>
    <g id="ITEM_3_ICON" transform="translate(-34, 40)" data-icon-size="68" stroke-dasharray="6 4">
      <g transform="translate(-4.895126050420171,-4.59361344537815) scale(0.1507563025210084)" vector-effect="non-scaling-stroke" fill="#f1f5f9" fill-opacity="1.0" stroke="none">
        <path fill="#f1f5f9" d="M23.25 19.875c38.22 44.005 38.98 90.112 16 132.344c75.61-33.06 158.24-45.382 238.844-45.407c2.933 0 5.854 0 8.78.03c45.98.49 91.18 4.898 133.938 11.626C295.842 26.31 154.954 21.397 23.25 19.874zm251.5 105.75c-75.736.388-152.785 11.91-223.03 41.563c39.527 25.086 44.946 85.016 30.78 130.156c81.86-82.396 213.783-137.65 326.688-161.72c-43.14-6.38-88.547-10.234-134.438-10zm139.28 28.094C303.25 177.412 172.427 233.127 94.44 312c59.466-5.64 111.354 40.075 96.25 97.844c65.75-107.004 135.848-185.01 223.34-256.124zm11.126 15.06c-84.76 68.95-152.326 143.842-216.187 247c86.224-47.916 190.35-14.365 189.405 76.126h89.53L362.096 328.78l-3.345-4.31l2.156-5.064l64.25-150.625zm10.313 23.407L380.25 321.72l113.875 147.655V435.03c-59.59-92.815-68.082-170.762-58.656-242.842z" vector-effect="non-scaling-stroke" stroke="none"/>
      </g>
    </g>
    <text id="ITEM_3_HEAD" x="0.0" y="138.0" text-anchor="middle" font-size="44" font-weight="800" fill="var(--primary-text)" data-bg-id="ITEM_3_BG" fill-opacity="1.0" style="font-size: 30px; font-family: Inter, Segoe UI, Kalam, Roboto, Helvetica, Arial, sans-serif; font-weight: 700; letter-spacing:-0.4px;" data-final-font-size="30">
      <tspan x="0.0" dy="42.25px">Chupacabra Scares</tspan>
    </text>
    <rect id="ITEM_3_HEAD_FRAME" x="-165.0" y="138" width="330.0" height="68" fill="none"/>
    <text id="ITEM_3_BODY" x="0.0" y="206.0" text-anchor="middle" font-size="27" fill="var(--primary-text)" data-bg-id="ITEM_3_BG" style="font-size: 26px; font-family: Inter, Segoe UI, Kalam, Roboto, Helvetica, Arial, sans-serif; font-weight: 400;" data-final-font-size="26">
      <tspan x="0.0" dy="39.64px">Imported myth applied</tspan>
      <tspan x="0.0" dy="29.90px">to vampire bat attacks</tspan>
    </text>
    <rect id="ITEM_3_BODY_FRAME" x="-190.0" y="206" width="380" height="154" fill="none"/>
  </g>
  <g transform="translate(690.0, 670.0)" filter="url(#svg6fc9ca03-soft-shadow)">
    <rect id="ITEM_4_BG" x="-200.0" y="0" width="400.0" height="360" rx="26" fill="var(--panel)" fill-opacity="0.95" stroke="var(--accent-4)" stroke-width="3"/>
    <rect x="-184.0" y="12" width="368.0" height="8" rx="4" fill="var(--accent-4)" fill-opacity="0.55"/>
    <circle id="ITEM_4_PAD" cx="0" cy="74" r="46" fill="var(--icon-pad-bg)" stroke="var(--primary-text)" opacity="0.9" fill-opacity="0.9" stroke-width="2"/>
    <circle id="ITEM_4_PAD_INNER" cx="0" cy="74" r="35.88" fill="var(--accent-6)" fill-opacity="0.22"/>
    <circle cx="0" cy="74" r="36" fill="none" stroke="var(--accent-4)" stroke-width="3" stroke-dasharray="6 4"/>
    <g id="ITEM_4_ICON" transform="translate(-34, 40)" data-icon-size="68" stroke-dasharray="6 4">
      <g transform="translate(-8.524444444444448,-8.524444444444448) scale(3.543703703703704)" vector-effect="non-scaling-stroke" stroke-width="2.53" stroke-linecap="round" stroke-linejoin="round" stroke-opacity="1.0">
        <path d="M3 7c.915 -.61 1.83 -1.034 2.746 -1.272m4.212 .22c.68 .247 1.361 .598 2.042 1.052c3 2 6 2 9 0" vector-effect="non-scaling-stroke" fill="none" stroke="#f1f5f9"/>
        <path d="M3 17c3 -2 6 -2 9 0c2.092 1.395 4.184 1.817 6.276 1.266" vector-effect="non-scaling-stroke" fill="none" stroke="#f1f5f9"/>
        <path d="M3 12c3 -2 6 -2 9 0m5.482 1.429c1.173 -.171 2.345 -.647 3.518 -1.429" vector-effect="non-scaling-stroke" fill="none" stroke="#f1f5f9"/>
        <path d="M3 3l18 18" vector-effect="non-scaling-stroke" fill="none" stroke="#f1f5f9"/>
      </g>
    </g>
    <text id="ITEM_4_HEAD" x="0.0" y="138.0" text-anchor="middle" font-size="44" font-weight="800" fill="var(--accent-6)" data-bg-id="ITEM_4_BG" fill-opacity="1.0" style="font-size: 30px; font-family: Inter, Segoe UI, Kalam, Roboto, Helvetica, Arial, sans-serif; font-weight: 700; letter-spacing:-0.4px;" data-final-font-size="30">
      <tspan x="0.0" dy="42.25px">Sea Snake Sightings</tspan>
    </text>
    <rect id="ITEM_4_HEAD_FRAME" x="-165.0" y="138" width="330.0" height="68" fill="none"/>
    <text id="ITEM_4_BODY" x="0.0" y="206.0" text-anchor="middle" font-size="27" fill="var(--primary-text)" data-bg-id="ITEM_4_BG" style="font-size: 26px; font-family: Inter, Segoe UI, Kalam, Roboto, Helvetica, Arial, sans-serif; font-weight: 400;" data-final-font-size="26">
      <tspan x="0.0" dy="39.64px">Venomous Hydrophis platurus</tspan>
      <tspan x="0.0" dy="29.90px">found off Pacific coast</tspan>
    </text>
    <rect id="ITEM_4_BODY_FRAME" x="-190.0" y="206" width="380" height="154" fill="none"/>
  </g>
  <g transform="translate(1230.0, 670.0)" filter="url(#svg6fc9ca03-soft-shadow)">
    <rect id="ITEM_5_BG" x="-200.0" y="0" width="400.0" height="360" rx="26" fill="var(--panel)" fill-opacity="0.95" stroke="var(--accent-5)" stroke-width="3"/>
    <rect x="-184.0" y="12" width="368.0" height="8" rx="4" fill="var(--accent-5)" fill-opacity="0.55"/>
    <circle id="ITEM_5_PAD" cx="0" cy="74" r="46" fill="var(--icon-pad-bg)" stroke="var(--primary-text)" opacity="0.9" fill-opacity="0.9" stroke-width="2"/>
    <circle id="ITEM_5_PAD_INNER" cx="0" cy="74" r="35.88" fill="var(--accent-1)" fill-opacity="0.22"/>
    <circle cx="0" cy="74" r="36" fill="none" stroke="var(--accent-5)" stroke-width="3" stroke-dasharray="6 4"/>
    <g id="ITEM_5_ICON" transform="translate(-34, 40)" data-icon-size="68" stroke-dasharray="6 4">
      <g transform="translate(-6.248000000000003,-5.935999999999998) scale(0.156)" vector-effect="non-scaling-stroke" fill="#f1f5f9" fill-opacity="1.0" stroke="none">
        <path fill="#f1f5f9" d="M462.6 28.88C448.9 41.67 441 50.8 428.1 60.77l12.8 12.87c11.9-10.01 23.7-20.95 34.7-32.29c5.7-8.85-8.8-16.05-13-12.47m-270.1.39l.9 17.98c45.6-1.2 85.9 4.21 85.9 4.21c6.9.63 12.8-16.1 2.3-17.84c-35.2-3.19-57.4-5.01-89.1-4.35m-18 .82c-19.3 1.27-39 3.91-57 8.86q-3.75 1.065-7.5 2.28L120 57c18.6-4.94 38.8-7.74 55.4-8.91zM92.89 47.94c-12.45 5.94-23.15 13.78-30.73 24.34c-2.5 3.47-4.28 7.15-5.48 10.93l17.09 5.27c.69-1.96 1.68-3.84 3.01-5.7c5.59-7.79 14.58-14.28 25.92-19.43zM414 71.93c-13.4 9.9-27.2 18.39-37.4 21.34c-2 .57-4.1 1.07-6.5 1.49c1.1 5.94 5.5 11.04 13.3 15.24c14.5-4.6 29.5-14.28 43.5-25.01zM241.4 82.62C228 80.9 228.3 97.16 237 100.1c0 0 23.3 5.8 52.3 10l-4.2-18.81c-24.8-4-43.7-8.67-43.7-8.67m62.7 11.39l4.2 18.59c18.3 2.1 37.7 3.2 54.8 1.4c-6.9-4.5-12.8-9.7-15.1-17.38c-13.7.3-29.2-.8-43.9-2.61M54.89 101.5c.23 2.6.63 5.2 1.18 7.7c3.44 13.6 9.35 26.1 14.5 37l18-4c-.8-1.7-1.61-3.4-2.4-5.1c-5.06-10.6-9.72-20.8-12.01-29.7zm104.01 3.1c-10.5-1.8-14.3 13.8-2.8 17.8c0 0 20 3.2 42.3 10.3l9.8-15.7c-25.6-8.6-49.3-12.4-49.3-12.4m66.5 18.8l-9.7 15.5c8.7 3.5 17 7.5 23.7 12.1c4.5 3 8.1 6.1 10.9 9.3q12.3 4.8 21.3.6c-4.1-10.3-12.5-18.4-22.2-24.9c-7.3-4.9-15.5-9-24-12.6m134.2 19.8c-9-6.1-15.4 10.5-9.8 15c0 0 9.7 6.4 22.6 16.4l10.2-14.8c-13.1-10.1-23-16.6-23-16.6M96.15 159l-17.9 3.9c2.18 5.2 4.05 10.1 5.31 14.8c2.36 8.6 2.73 15.8.37 22.2l10.86 16.9c1.46-1.8 2.76-3.7 3.86-5.8c6.35-12.2 5.55-25.7 2.35-38.1c-1.35-4.7-3.05-9.3-4.85-13.9m300.75 12.2L386.5 186c11.4 10.2 23.4 21.6 32.1 32.3l13-13.3c-11.4-12.8-22.8-24.2-34.7-33.8m-141.8 7.3c-1.1 2.2-2.8 4.5-5.4 7.2c-4.8 4.9-12.2 10.1-20.3 15.4l11.8 13.8c7.6-5 15.2-10.3 21.4-16.7c5-5.2 9.2-11.8 10.8-19.2c-5.9 2.5-12 2.6-18.3-.5m-112.7 6.4s-3.3 16-9 37.4l18.5.4c5.2-19.8 8.1-34.2 8.1-34.2c1.9-8.8-14.4-22.5-17.6-3.6m72 26.1c-5.7 3.9-11.1 8.1-15.8 12.8c-7.9 7.9-13.8 18.8-11.8 31.2c.9 5.4 3.2 10.2 6.4 14.4l14.7-10.5q-2.85-3.75-3.3-6.9c-1-5.6 1.1-9.8 6.8-15.6c3.7-3.7 8.9-7.6 14.7-11.6zm-144.12 1c-9.84 5-19.99 8.1-31.13 10.4c-7.23 2.7-4.56 19 3.38 17.6c13.96-3.3 25.45-6.3 37.84-12.3zm372.02 7.9L429 233.4c1.8 3.4 3.1 6.7 4 9.7c1.8 6.9.8 17.9-1.7 29.8c5.2 5.2 10.4 9.8 17 8.4c3.7-14.6 5.6-29.6 2.1-42.8q-2.7-9.6-8.1-18.6m-313.9 20.3c-4.2 13.5-8.9 27.8-14.2 40.8l18.3 3.2c5.6-14.2 10.3-29.1 14.3-43c.1-.2.1-.4.2-.6zm200.7 23.4s-5.5 8.4-12.3 20.8l16.3 7.5c6.4-11.1 11.2-18.7 11.2-18.7c3.7-8.3-7.7-20-15.2-9.6M222 270.8L206.5 282c7.6 5.6 16.4 10.2 25.1 14c19 8.4 37.2 12.9 37.2 12.9c6.9 1 18.7-12.5 4.3-17.4c0 0-17-4.3-34.3-12c-5.8-2.5-11.7-5.5-16.8-8.7m204.6 19.9c-4.5 14.4-10.4 28.7-17.3 42.5c-2.9 8.4 8.1 16.5 16 8.2c7.6-16.7 12.3-27.3 17.7-42.5c-5.8.2-11.3-2.3-16.4-8.2m-320.1 7.4c-5.7 12.9-15.62 23.5-25.08 31.5l12.74 13c14.24-11.2 23.94-26.8 31.04-41.4zm201.6 2.2c-6.5 12.9-13.3 27.4-17.8 41.4c7.5-3.8 14.2-4.5 20.2-2.3c3.9-10.4 9-21.5 14-31.4c0-.1.1-.2.1-.2zm55.3 36.3c-3.6-6.8-19.6-3.5-17.3 5.6c5 15.3 10.5 29.2 16.5 41.9l16.2-7.6c-5.5-11.9-10.7-25.1-15.4-39.9m-296.35 4c-10.71 7.8-22.03 14.9-33.8 21.7c-10.75 6.8 1.74 18.9 8.82 15.6c0 0 12.88-7.2 27.85-17.3c3.23-2.2 6.56-4.5 9.89-6.9zm237.55 17.5c-6.8-3-12.9-1.2-18.7 2.2c-1.6 12-.2 25.4 1.7 35.7l18.3-2.1c-2.6-12.3-3.5-24.5-1.3-35.8m-196.1 29.5c4.8 4.1 8.5 9 10.3 15.6c10.1-6.8 19.9-13.6 31.4-12.7l-.4-18.3c-15.2-.1-30.8 7.7-41.3 15.4m59.4-12.7l.4 19.6c7.6 2.5 15.7 6 23.5 9.9l5.1-17.7c-9.3-4.8-19.1-9.1-29-11.8m219 17.6l-16 7.5c9.9 17.5 21.2 32.3 34.4 44.6l4.6-20.1c-8.5-9.1-16.1-19.7-23-32m-173.9 3l-5.2 17.9c16.2 9.8 28 19 28 19c8.4 4.1 16.8-8.2 11-14.2c0 0-14.5-11.3-33.8-22.7m-118.36 3.9c-9.56 9.3-17.37 18.1-25.08 27.4l15.15 9.9C91.09 429 98.52 421 105 414.9c-.6-7.4-5.33-11.6-10.36-15.5m215.36 12l-18.2 2.2c6.2 22.3 13.4 43.2 22.8 65.1c6.7 7.4 17.8 3.2 16.5-7.2c-8.7-22-15.4-38.4-21.1-60.1m115.1 27.3l-4.2 18.7c15.2 10.9 32.5 19.4 52.5 25.7c12.7 3.7 13.7-16.1 5.4-17.2c-21.2-6.6-38.7-15.4-53.7-27.2m-366.65 2.2c-8.98 12-14.61 20.9-14.61 20.9c-4.1 7.7 6.24 17.7 15.2 9.6c0 0 5.64-8.8 14.51-20.6z" vector-effect="non-scaling-stroke" stroke="none"/>
      </g>
    </g>
    <text id="ITEM_5_HEAD" x="0.0" y="138.0" text-anchor="middle" font-size="44" font-weight="800" fill="var(--primary-text)" data-bg-id="ITEM_5_BG" fill-opacity="1.0" style="font-size: 30px; font-family: Inter, Segoe UI, Kalam, Roboto, Helvetica, Arial, sans-serif; font-weight: 700; letter-spacing:-0.4px;" data-final-font-size="30">
      <tspan x="0.0" dy="42.25px">Velvet Worms</tspan>
    </text>
    <rect id="ITEM_5_HEAD_FRAME" x="-165.0" y="138" width="330.0" height="68" fill="none"/>
    <text id="ITEM_5_BODY" x="0.0" y="206.0" text-anchor="middle" font-size="27" fill="var(--primary-text)" data-bg-id="ITEM_5_BG" style="font-size: 26px; font-family: Inter, Segoe UI, Kalam, Roboto, Helvetica, Arial, sans-serif; font-weight: 400;" data-final-font-size="26">
      <tspan x="0.0" dy="33.66px">Real slime-shooting</tspan>
      <tspan x="0.0" dy="29.90px">invertebrates in</tspan>
      <tspan x="0.0" dy="29.90px">Caribbean forests</tspan>
    </text>
    <rect id="ITEM_5_BODY_FRAME" x="-190.0" y="206" width="380" height="154" fill="none"/>
  </g>
</svg>
