<?xml version='1.0' encoding='utf-8'?>
<svg xmlns="http://www.w3.org/2000/svg" width="1920" height="1080" viewBox="0 0 1920 1080" data-theme="dark">
  <style>
        @font-face {
            font-family: 'Inter';
            src: url('assets/fonts/Inter-Regular.ttf') format('truetype');
            font-weight: 400;
            font-style: normal;
            font-display: swap;
        }
        @font-face {
            font-family: 'Inter';
            src: url('assets/fonts/Inter-Bold.ttf') format('truetype');
            font-weight: 600;
            font-style: normal;
            font-display: swap;
        }
        @font-face {
            font-family: 'Inter';
            src: url('assets/fonts/Inter-Bold.ttf') format('truetype');
            font-weight: 800;
            font-style: normal;
            font-display: swap;
        }
        
:root {
    --background: #0f172a;
    --panel: #1e293b;
    --primary-text: #f1f5f9;
    --muted-text: #94a3b8;
    --inverse-text: #0f172a;
    --border: #334155;
    --shadow-color: #000000;
    --icon-pad-bg: #1e293b;
    --art-glow: #7dd3fc;
    --art-glow-opacity: 0.18;
    --art-sheen: #ffffff;
    --art-sheen-opacity: 0.18;
    --art-shadow: #000000;
    --art-shadow-opacity: 0.28;
    --art-muted-line: #64748b;
    --art-panel-tint: #1e293b;
    --font-family: 'Inter', 'Segoe UI', 'Kalam', Roboto, Helvetica, Arial, sans-serif;
    --radius-xl: 16px;
    --font-family-headline: 'Inter', 'Segoe UI', 'Kalam', Roboto, Helvetica, Arial, sans-serif;
    --font-family-body: 'Inter', 'Segoe UI', 'Kalam', Roboto, Helvetica, Arial, sans-serif;
    --font-heading: 'Inter', 'Segoe UI', 'Kalam', Roboto, Helvetica, Arial, sans-serif;
    --font-body: 'Inter', 'Segoe UI', 'Kalam', Roboto, Helvetica, Arial, sans-serif;
    --font-size-h1: 56px;
    --font-size-h2: 40px;
    --font-size-h3: 28px;
    --font-size-body: 24px;
    --font-size-caption: 18px;
    --secondary-text: var(--muted-text);
    --panel-border: var(--border);
    --font-weight-normal: 400;
    --font-weight-medium: 500;
    --font-weight-semibold: 600;
    --font-weight-bold: 700;
    --spacing-gutter-pct: 0.07;
    --spacing-top-pct: 0.15;
    --spacing-bottom-pct: 0.07;
    --spacing-title-y-pct: 0.055;
    --accent-1: #93c5fd;
    --accent-2: #86efac;
    --accent-3: #fcd34d;
    --accent-4: #f9a8d4;
    --accent-5: #c4b5fd;
    --accent-6: #a5f3fc;
}
:root[data-theme="dark"] {
    --background: #0f172a;
    --panel: #1e293b;
    --primary-text: #f1f5f9;
    --muted-text: #94a3b8;
    --inverse-text: #0f172a;
    --border: #334155;
    --shadow-color: #000000;
    --icon-pad-bg: #1e293b;
    --art-glow: #7dd3fc;
    --art-glow-opacity: 0.18;
    --art-sheen: #ffffff;
    --art-sheen-opacity: 0.18;
    --art-shadow: #000000;
    --art-shadow-opacity: 0.28;
    --art-muted-line: #64748b;
    --art-panel-tint: #1e293b;
    --accent-1: #93c5fd;
    --accent-2: #86efac;
    --accent-3: #fcd34d;
    --accent-4: #f9a8d4;
    --accent-5: #c4b5fd;
    --accent-6: #a5f3fc;
}
:root[data-theme="light"] {
    --background: #f8fafc;
    --panel: #ffffff;
    --primary-text: #0f172a;
    --muted-text: #64748b;
    --inverse-text: #ffffff;
    --border: #e2e8f0;
    --shadow-color: #000000;
    --icon-pad-bg: #1e293b;
    --art-glow: #0891b2;
    --art-glow-opacity: 0.10;
    --art-sheen: #ffffff;
    --art-sheen-opacity: 0.34;
    --art-shadow: #0f172a;
    --art-shadow-opacity: 0.14;
    --art-muted-line: #94a3b8;
    --art-panel-tint: #f1f5f9;
    --accent-1: #3b82f6;
    --accent-2: #22c55e;
    --accent-3: #f59e0b;
    --accent-4: #ec4899;
    --accent-5: #8b5cf6;
    --accent-6: #06b6d4;
}</style>
  <rect x="0" y="0" width="1.92E+3" height="1.08E+3" fill="#252a34" stroke="none" id="programmatic_background"/>
  <line id="HEADER_DECOR" x1="960.0" x2="1080.0" y1="79.0" y2="79.0" stroke="var(--accent-1)" stroke-width="6" stroke-linecap="round"/>
  <defs>
    <pattern id="svg540d3211-napkin-hatch" patternUnits="userSpaceOnUse" width="12" height="12">
      <path d="M -3 12 L 12 -3 M 0 15 L 15 0" fill="none" stroke="var(--primary-text)" stroke-width="1" stroke-opacity="0.05"/>
    </pattern>
    <filter id="svg540d3211-shadow" x="-30%" y="-30%" width="160%" height="160%">
      <feDropShadow dx="0" dy="2" stdDeviation="3" flood-color="#000000" flood-opacity="0.08"/>
    </filter>
    <linearGradient id="svg540d3211-summit-grad" x1="0%" y1="0%" x2="0%" y2="100%">
      <stop offset="0%" stop-color="var(--muted-text)"/>
      <stop offset="100%" stop-color="var(--panel)"/>
    </linearGradient>
    <linearGradient id="svg540d3211-snow-grad" x1="0%" y1="0%" x2="0%" y2="100%">
      <stop offset="0%" stop-color="var(--background)"/>
      <stop offset="100%" stop-color="var(--muted-text)"/>
    </linearGradient>
    <radialGradient id="svg540d3211-universal-edge-vignette" cx="50%" cy="50%" r="72%">
      <stop offset="0%" stop-color="var(--background)" stop-opacity="0"/>
      <stop offset="72%" stop-color="var(--background)" stop-opacity="0.12"/>
      <stop offset="100%" stop-color="var(--primary-text)" stop-opacity="0.08"/>
    </radialGradient>
    <linearGradient id="svg540d3211-universal-surface-sheen" x1="0%" y1="0%" x2="100%" y2="100%">
      <stop offset="0%" stop-color="var(--art-sheen)" stop-opacity="var(--art-sheen-opacity)"/>
      <stop offset="46%" stop-color="var(--art-sheen)" stop-opacity="0.035"/>
      <stop offset="100%" stop-color="var(--art-panel-tint)" stop-opacity="0.14"/>
    </linearGradient>
    <radialGradient id="svg540d3211-universal-icon-aura" cx="50%" cy="42%" r="64%">
      <stop offset="0%" stop-color="var(--art-glow)" stop-opacity="var(--art-glow-opacity)"/>
      <stop offset="100%" stop-color="var(--background)" stop-opacity="0"/>
    </radialGradient>
    <filter id="svg540d3211-text-glow" x="-20%" y="-20%" width="140%" height="140%">
      <feDropShadow dx="0" dy="0" stdDeviation="2" flood-color="#000000" flood-opacity="0.4"/>
    </filter>
    <marker id="svg540d3211-arrowhead" markerWidth="10" markerHeight="7" refX="9" refY="3.5" orient="auto" markerUnits="strokeWidth">
      <polygon points="0 0, 10 3.5, 0 7" fill="var(--muted-text)" opacity="0.6"/>
    </marker>
  </defs>
  <rect width="100%" height="100%" fill="var(--background)" id="CANVAS_BG"/>
  <rect width="100%" height="100%" fill="url(#svg540d3211-napkin-hatch)"/>
  <rect id="UNIVERSAL_EDGE_VIGNETTE" width="100%" height="100%" fill="url(#svg540d3211-universal-edge-vignette)" opacity="0.62"/>
  <text id="TITLE" x="960.0" y="59" font-size="48" font-weight="700" fill="#f1f5f9" text-anchor="middle" style="font-size: 60px; font-family: Inter, Segoe UI, Kalam, Roboto, Helvetica, Arial, sans-serif; font-weight: 700; letter-spacing:-1.2px;" data-final-font-size="60">
    <tspan x="960.0" dy="68.00px">Geological Anchors of Dominican Lore</tspan>
  </text>
  <rect id="TITLE_FRAME" x="134" y="10" width="1652" height="60" fill="none"/>
  <g id="DIAGRAM_MAIN">
    <!-- Mountain Base -->
    <path d="M -100 1080  L -25.0 1007.0 L 65.0 874.0 L 65.0 821.0 L 155.0 688.0 L 245.0 635.0 L 245.0 502.0 L 335.0 449.0 L 425.0 316.0 L 425.0 263.0 L 500 150 L 580.0 258.0 L 600.0 381.0 L 700.0 414.0 L 720.0 537.0 L 820.0 660.0 L 840.0 693.0 L 940.0 816.0 L 960.0 939.0 L 1060.0 972.0 L 1100 1080 Z" fill="url(#svg540d3211-summit-grad)" stroke="var(--primary-text)" stroke-width="3" stroke-linejoin="round" stroke-opacity="0.4"/>
    <!-- Snow Cap -->
    <path d="M 380 300 L 420 280 L 470 310 L 520 280 L 560 320 L 600 290 L 640 340 L 500 150 Z" fill="url(#svg540d3211-snow-grad)" stroke="var(--primary-text)" stroke-width="2" stroke-linejoin="round" stroke-opacity="0.6"/>
    <!-- Connecting Zig-Zag Trail -->
    <path d="M 983.8709677419354 900.0 L 870.9677419354839 725.0 L 758.0645161290322 550.0 L 645.1612903225806 375.0 L 532.258064516129 240.0" fill="none" stroke="var(--muted-text)" stroke-width="4" stroke-dasharray="12 10" stroke-linecap="round" opacity="0.6"/>
    <circle id="ITEM_1_BORDER" cx="983.8709677419354" cy="900.0" r="37" fill="var(--background)" stroke="var(--accent-1)" stroke-width="3"/>
    <circle id="ITEM_1_STROKE" cx="983.8709677419354" cy="900.0" r="45" fill="transparent" stroke="var(--accent-5)" stroke-width="3" stroke-dasharray="6 4" stroke-opacity="1.0"/>
    <circle id="ITEM_1_PAD" cx="983.87" cy="900.00" r="40.00" fill="var(--icon-pad-bg)" stroke="var(--primary-text)" stroke-width="2" opacity="0.9"/>
    <circle id="ITEM_1_PAD_INNER" cx="983.87" cy="900.00" r="31.20" fill="var(--accent-5)" fill-opacity="0.22"/>
    <g id="ITEM_1_ICON" transform="translate(958.8709677419354, 875.0)" data-icon-size="50" stroke-dasharray="6 4">
      <g transform="translate(-8.961061946902658,-8.961061946902658) scale(2.9451327433628323)" vector-effect="non-scaling-stroke" stroke-width="2.31" stroke-linecap="round" stroke-linejoin="round" stroke-opacity="1.0">
        <path d="M11 20A7 7 0 0 1 9.8 6.1C15.5 5 17 4.48 19 2c1 2 2 4.18 2 8 0 5.5-4.78 10-10 10Z" vector-effect="non-scaling-stroke" fill="none" stroke="#f1f5f9"/>
        <path d="M2 21c0-3 1.85-5.36 5.08-6C9.5 14.52 12 13 13 12" vector-effect="non-scaling-stroke" fill="none" stroke="#f1f5f9"/>
      </g>
    </g>
    <!-- Connector line to the rigid text column -->
    <line id="ITEM_1_CONN" x1="1028.8709677419354" y1="900.0" x2="1230" y2="900.0" stroke="var(--accent-5)" stroke-width="2" stroke-dasharray="6 4" opacity="0.6" stroke-opacity="1.0"/>
    <circle id="ITEM_1_DOT" cx="1230" cy="900.0" r="5" fill="var(--accent-5)" fill-opacity="1.0"/>
    <rect id="ITEM_1_HEAD_FRAME" x="1250" y="840.0" width="620" height="45" fill="none"/>
    <rect id="ITEM_1_TEXT_BG" x="1232" y="826" width="656" height="182" rx="22" fill="var(--panel)" fill-opacity="0.94" stroke="var(--accent-1)" stroke-width="2"/>
    <text id="ITEM_1_HEAD" x="1250.0" y="840.0" font-weight="bold" font-size="28" fill="var(--accent-5)" text-anchor="start" data-bg-id="ITEM_1_TEXT_BG" fill-opacity="1.0" stroke="none" style="font-size: 30px; font-family: Inter, Segoe UI, Kalam, Roboto, Helvetica, Arial, sans-serif; font-weight: 700; letter-spacing:-0.4px;" data-final-font-size="30">
      <tspan x="1250.0" dy="30.75px">Dense Rainforests</tspan>
    </text>
    <rect id="ITEM_1_BODY_FRAME" x="1250" y="905.0" width="620" height="85" fill="none"/>
    <text id="ITEM_1_BODY" x="1250.0" y="905.0" font-size="18" fill="var(--primary-text)" text-anchor="start" data-bg-id="ITEM_1_TEXT_BG" style="font-size: 26px; font-family: Inter, Segoe UI, Kalam, Roboto, Helvetica, Arial, sans-serif; font-weight: 400;" data-final-font-size="26">
      <tspan x="1250.0" dy="25.84px">Provides acoustic confusion</tspan>
      <tspan x="1250.0" dy="29.90px">and visual misdirection</tspan>
    </text>
    <circle id="ITEM_2_BORDER" cx="870.9677419354839" cy="725.0" r="37" fill="var(--background)" stroke="var(--accent-2)" stroke-width="3"/>
    <circle id="ITEM_2_STROKE" cx="870.9677419354839" cy="725.0" r="45" fill="transparent" stroke="var(--accent-6)" stroke-width="3" stroke-dasharray="6 4" stroke-opacity="1.0"/>
    <circle id="ITEM_2_PAD" cx="870.97" cy="725.00" r="40.00" fill="var(--icon-pad-bg)" stroke="var(--primary-text)" stroke-width="2" opacity="0.9"/>
    <circle id="ITEM_2_PAD_INNER" cx="870.97" cy="725.00" r="31.20" fill="var(--accent-6)" fill-opacity="0.22"/>
    <g id="ITEM_2_ICON" transform="translate(845.9677419354839, 700.0)" data-icon-size="50" stroke-dasharray="6 4">
      <g transform="translate(-8.844067796610172,-10.166101694915259) scale(2.820338983050848)" vector-effect="non-scaling-stroke" stroke-width="2.31" stroke-linecap="round" stroke-linejoin="round" stroke-opacity="1.0">
        <path d="M18 17.5a2.5 2.5 0 1 1-4 2.03V12" vector-effect="non-scaling-stroke" fill="none" stroke="#f1f5f9"/>
        <path d="M6 12H4a2 2 0 0 1-2-2V5a2 2 0 0 1 2-2h16a2 2 0 0 1 2 2v5a2 2 0 0 1-2 2h-2" vector-effect="non-scaling-stroke" fill="none" stroke="#f1f5f9"/>
        <path d="M6 8h12" vector-effect="non-scaling-stroke" fill="none" stroke="#f1f5f9"/>
        <path d="M6.6 15.572A2 2 0 1 0 10 17v-5" vector-effect="non-scaling-stroke" fill="none" stroke="#f1f5f9"/>
      </g>
    </g>
    <!-- Connector line to the rigid text column -->
    <line id="ITEM_2_CONN" x1="915.9677419354839" y1="725.0" x2="1230" y2="725.0" stroke="var(--accent-6)" stroke-width="2" stroke-dasharray="6 4" opacity="0.6" stroke-opacity="1.0"/>
    <circle id="ITEM_2_DOT" cx="1230" cy="725.0" r="5" fill="var(--accent-6)" fill-opacity="1.0"/>
    <rect id="ITEM_2_HEAD_FRAME" x="1250" y="665.0" width="620" height="45" fill="none"/>
    <rect id="ITEM_2_TEXT_BG" x="1232" y="651" width="656" height="182" rx="22" fill="var(--panel)" fill-opacity="0.94" stroke="var(--accent-2)" stroke-width="2"/>
    <text id="ITEM_2_HEAD" x="1250.0" y="665.0" font-weight="bold" font-size="28" fill="var(--accent-6)" text-anchor="start" data-bg-id="ITEM_2_TEXT_BG" fill-opacity="1.0" stroke="none" style="font-size: 30px; font-family: Inter, Segoe UI, Kalam, Roboto, Helvetica, Arial, sans-serif; font-weight: 700; letter-spacing:-0.4px;" data-final-font-size="30">
      <tspan x="1250.0" dy="30.75px">Volcanic Fumaroles</tspan>
    </text>
    <rect id="ITEM_2_BODY_FRAME" x="1250" y="730.0" width="620" height="85" fill="none"/>
    <text id="ITEM_2_BODY" x="1250.0" y="730.0" font-size="18" fill="var(--primary-text)" text-anchor="start" data-bg-id="ITEM_2_TEXT_BG" style="font-size: 26px; font-family: Inter, Segoe UI, Kalam, Roboto, Helvetica, Arial, sans-serif; font-weight: 400;" data-final-font-size="26">
      <tspan x="1250.0" dy="25.84px">Creates sulfur smells and steam</tspan>
      <tspan x="1250.0" dy="29.90px">for supernatural claims</tspan>
    </text>
    <circle id="ITEM_3_BORDER" cx="758.0645161290322" cy="550.0" r="37" fill="var(--background)" stroke="var(--accent-3)" stroke-width="3"/>
    <circle id="ITEM_3_STROKE" cx="758.0645161290322" cy="550.0" r="45" fill="transparent" stroke="var(--accent-1)" stroke-width="3" stroke-dasharray="6 4" stroke-opacity="1.0"/>
    <circle id="ITEM_3_PAD" cx="758.06" cy="550.00" r="40.00" fill="var(--icon-pad-bg)" stroke="var(--primary-text)" stroke-width="2" opacity="0.9"/>
    <circle id="ITEM_3_PAD_INNER" cx="758.06" cy="550.00" r="31.20" fill="var(--accent-1)" fill-opacity="0.22"/>
    <g id="ITEM_3_ICON" transform="translate(733.0645161290322, 525.0)" data-icon-size="50" stroke-dasharray="6 4">
      <g transform="translate(-8.844067796610172,-8.844067796610172) scale(2.820338983050848)" vector-effect="non-scaling-stroke" stroke-width="2.31" stroke-linecap="round" stroke-linejoin="round" stroke-opacity="1.0">
        <path d="M2 20a2.4 2.4 0 0 0 2 1a2.4 2.4 0 0 0 2 -1a2.4 2.4 0 0 1 2 -1a2.4 2.4 0 0 1 2 1a2.4 2.4 0 0 0 2 1a2.4 2.4 0 0 0 2 -1a2.4 2.4 0 0 1 2 -1a2.4 2.4 0 0 1 2 1a2.4 2.4 0 0 0 2 1a2.4 2.4 0 0 0 2 -1" vector-effect="non-scaling-stroke" fill="none" stroke="#f1f5f9"/>
        <path d="M2 16a2.4 2.4 0 0 0 2 1a2.4 2.4 0 0 0 2 -1a2.4 2.4 0 0 1 2 -1a2.4 2.4 0 0 1 2 1a2.4 2.4 0 0 0 2 1a2.4 2.4 0 0 0 2 -1a2.4 2.4 0 0 1 2 -1a2.4 2.4 0 0 1 2 1a2.4 2.4 0 0 0 2 1a2.4 2.4 0 0 0 2 -1" vector-effect="non-scaling-stroke" fill="none" stroke="#f1f5f9"/>
        <path d="M15 12v-7.5a1.5 1.5 0 0 1 3 0" vector-effect="non-scaling-stroke" fill="none" stroke="#f1f5f9"/>
        <path d="M9 12v-7.5a1.5 1.5 0 0 0 -3 0" vector-effect="non-scaling-stroke" fill="none" stroke="#f1f5f9"/>
        <path d="M15 5l-6 0" vector-effect="non-scaling-stroke" fill="none" stroke="#f1f5f9"/>
        <path d="M9 10l6 0" vector-effect="non-scaling-stroke" fill="none" stroke="#f1f5f9"/>
      </g>
    </g>
    <!-- Connector line to the rigid text column -->
    <line id="ITEM_3_CONN" x1="803.0645161290322" y1="550.0" x2="1230" y2="550.0" stroke="var(--accent-1)" stroke-width="2" stroke-dasharray="6 4" opacity="0.6" stroke-opacity="1.0"/>
    <circle id="ITEM_3_DOT" cx="1230" cy="550.0" r="5" fill="var(--accent-1)" fill-opacity="1.0"/>
    <rect id="ITEM_3_HEAD_FRAME" x="1250" y="490.0" width="620" height="45" fill="none"/>
    <rect id="ITEM_3_TEXT_BG" x="1232" y="476" width="656" height="182" rx="22" fill="var(--panel)" fill-opacity="0.94" stroke="var(--accent-3)" stroke-width="2"/>
    <text id="ITEM_3_HEAD" x="1250.0" y="490.0" font-weight="bold" font-size="28" fill="var(--accent-1)" text-anchor="start" data-bg-id="ITEM_3_TEXT_BG" fill-opacity="1.0" stroke="none" style="font-size: 30px; font-family: Inter, Segoe UI, Kalam, Roboto, Helvetica, Arial, sans-serif; font-weight: 700; letter-spacing:-0.4px;" data-final-font-size="30">
      <tspan x="1250.0" dy="30.75px">Boiling Lake</tspan>
    </text>
    <rect id="ITEM_3_BODY_FRAME" x="1250" y="555.0" width="620" height="85" fill="none"/>
    <text id="ITEM_3_BODY" x="1250.0" y="555.0" font-size="18" fill="var(--primary-text)" text-anchor="start" data-bg-id="ITEM_3_TEXT_BG" style="font-size: 26px; font-family: Inter, Segoe UI, Kalam, Roboto, Helvetica, Arial, sans-serif; font-weight: 400;" data-final-font-size="26">
      <tspan x="1250.0" dy="25.84px">A hydrothermal feature in the Valley</tspan>
      <tspan x="1250.0" dy="29.90px">of Desolation</tspan>
    </text>
    <circle id="ITEM_4_BORDER" cx="645.1612903225806" cy="375.0" r="37" fill="var(--background)" stroke="var(--accent-4)" stroke-width="3"/>
    <circle id="ITEM_4_STROKE" cx="645.1612903225806" cy="375.0" r="45" fill="transparent" stroke="var(--accent-2)" stroke-width="3" stroke-dasharray="6 4" stroke-opacity="1.0"/>
    <circle id="ITEM_4_PAD" cx="645.16" cy="375.00" r="40.00" fill="var(--icon-pad-bg)" stroke="var(--primary-text)" stroke-width="2" opacity="0.9"/>
    <circle id="ITEM_4_PAD_INNER" cx="645.16" cy="375.00" r="31.20" fill="var(--accent-2)" fill-opacity="0.22"/>
    <g id="ITEM_4_ICON" transform="translate(620.1612903225806, 350.0)" data-icon-size="50" stroke-dasharray="6 4">
      <g transform="translate(-11.977777777777781,-11.977777777777781) scale(3.081481481481482)" vector-effect="non-scaling-stroke" stroke-width="2.31" stroke-linecap="round" stroke-linejoin="round" stroke-opacity="1.0">
        <path d="M14 7a1 1 0 1 0 2 0a1 1 0 1 0 -2 0" vector-effect="non-scaling-stroke" fill="none" stroke="#f1f5f9"/>
        <path d="M10.5 18l2.5 2l2 -2" vector-effect="non-scaling-stroke" fill="none" stroke="#f1f5f9"/>
        <path d="M18 21l3 -3l-4 -2l-1 -5" vector-effect="non-scaling-stroke" fill="none" stroke="#f1f5f9"/>
        <path d="M10.5 7.5l2 3l3.5 .5l3 -2l.5 -3" vector-effect="non-scaling-stroke" fill="none" stroke="#f1f5f9"/>
        <path d="M4 21v-1l2 -3l.5 -2.5l1.5 -2.5l-1 -5l1 -3l-1 -1l-2 .5l-2 -.5" vector-effect="non-scaling-stroke" fill="none" stroke="#f1f5f9"/>
      </g>
    </g>
    <!-- Connector line to the rigid text column -->
    <line id="ITEM_4_CONN" x1="690.1612903225806" y1="375.0" x2="1230" y2="375.0" stroke="var(--accent-2)" stroke-width="2" stroke-dasharray="6 4" opacity="0.6" stroke-opacity="1.0"/>
    <circle id="ITEM_4_DOT" cx="1230" cy="375.0" r="5" fill="var(--accent-2)" fill-opacity="1.0"/>
    <rect id="ITEM_4_HEAD_FRAME" x="1250" y="315.0" width="620" height="45" fill="none"/>
    <rect id="ITEM_4_TEXT_BG" x="1232" y="301" width="656" height="182" rx="22" fill="var(--panel)" fill-opacity="0.94" stroke="var(--accent-4)" stroke-width="2"/>
    <text id="ITEM_4_HEAD" x="1250.0" y="315.0" font-weight="bold" font-size="28" fill="var(--accent-2)" text-anchor="start" data-bg-id="ITEM_4_TEXT_BG" fill-opacity="1.0" stroke="none" style="font-size: 30px; font-family: Inter, Segoe UI, Kalam, Roboto, Helvetica, Arial, sans-serif; font-weight: 700; letter-spacing:-0.4px;" data-final-font-size="30">
      <tspan x="1250.0" dy="30.75px">Deep Ravines</tspan>
    </text>
    <rect id="ITEM_4_BODY_FRAME" x="1250" y="380.0" width="620" height="85" fill="none"/>
    <text id="ITEM_4_BODY" x="1250.0" y="380.0" font-size="18" fill="var(--primary-text)" text-anchor="start" data-bg-id="ITEM_4_TEXT_BG" style="font-size: 26px; font-family: Inter, Segoe UI, Kalam, Roboto, Helvetica, Arial, sans-serif; font-weight: 400;" data-final-font-size="26">
      <tspan x="1250.0" dy="25.84px">Dangerous terrain where victims are lured</tspan>
      <tspan x="1250.0" dy="29.90px">into hiding</tspan>
    </text>
    <circle id="ITEM_5_BORDER" cx="532.258064516129" cy="240.0" r="37" fill="var(--background)" stroke="var(--accent-5)" stroke-width="3"/>
    <circle id="ITEM_5_STROKE" cx="532.258064516129" cy="240.0" r="45" fill="transparent" stroke="var(--accent-3)" stroke-width="3" stroke-dasharray="6 4" stroke-opacity="1.0"/>
    <circle id="ITEM_5_PAD" cx="532.26" cy="240.00" r="40.00" fill="var(--icon-pad-bg)" stroke="var(--primary-text)" stroke-width="2" opacity="0.9"/>
    <circle id="ITEM_5_PAD_INNER" cx="532.26" cy="240.00" r="31.20" fill="var(--accent-3)" fill-opacity="0.22"/>
    <g id="ITEM_5_ICON" transform="translate(507.258064516129, 215.0)" data-icon-size="50" stroke-dasharray="6 4">
      <g transform="translate(-8.8218487394958,-9.60840336134454) scale(0.13109243697478992)" vector-effect="non-scaling-stroke" fill="#f1f5f9" fill-opacity="1.0" stroke="none">
        <path fill="#f1f5f9" d="M453.004 35.117c-65.314 46.61-189.755 41.018-213.559 125.426C184.41 101.41 98.625 83.031 21.771 63.209c6.532 139.103 71.38 147.437 192.44 194.547c23.71 25.786 29.786 49.93 19.254 82.705c46.403 5.1 71.504 15.468 106.754 27.742c-.708-71.67-25.14-108.928-75.518-175.035c11.058 4.233 44.979 37.02 56.578 58.607c109.419-42.421 147.64-112.074 131.725-216.658M180.178 353.9c-60.89-.24-114.034 19.49-158.426 74.221c167.075-48.84 292.003-13.21 471.893 7.895c-118.936-38.752-224.474-81.763-313.467-82.116m98.043 77.844c-99.28.255-206.34 18.738-256.866 63.139c168.002-26.61 356.801-28.408 470.8-4.967c1.102-35.337-101.418-58.46-213.934-58.172" vector-effect="non-scaling-stroke" stroke="none"/>
      </g>
    </g>
    <!-- Connector line to the rigid text column -->
    <line id="ITEM_5_CONN" x1="577.258064516129" y1="240.0" x2="1230" y2="240.0" stroke="var(--accent-3)" stroke-width="2" stroke-dasharray="6 4" opacity="0.6" stroke-opacity="1.0"/>
    <circle id="ITEM_5_DOT" cx="1230" cy="240.0" r="5" fill="var(--accent-3)" fill-opacity="1.0"/>
    <rect id="ITEM_5_HEAD_FRAME" x="1250" y="180.0" width="620" height="45" fill="none"/>
    <rect id="ITEM_5_TEXT_BG" x="1232" y="166" width="656" height="182" rx="22" fill="var(--panel)" fill-opacity="0.94" stroke="var(--accent-5)" stroke-width="2"/>
    <text id="ITEM_5_HEAD" x="1250.0" y="180.0" font-weight="bold" font-size="28" fill="var(--accent-3)" text-anchor="start" data-bg-id="ITEM_5_TEXT_BG" fill-opacity="1.0" stroke="none" style="font-size: 30px; font-family: Inter, Segoe UI, Kalam, Roboto, Helvetica, Arial, sans-serif; font-weight: 700; letter-spacing:-0.4px;" data-final-font-size="30">
      <tspan x="1250.0" dy="30.75px">Coastal Waters</tspan>
    </text>
    <rect id="ITEM_5_BODY_FRAME" x="1250" y="245.0" width="620" height="85" fill="none"/>
    <text id="ITEM_5_BODY" x="1250.0" y="245.0" font-size="18" fill="var(--primary-text)" text-anchor="start" data-bg-id="ITEM_5_TEXT_BG" style="font-size: 26px; font-family: Inter, Segoe UI, Kalam, Roboto, Helvetica, Arial, sans-serif; font-weight: 400;" data-final-font-size="26">
      <tspan x="1250.0" dy="31.82px">Home to large whales and mysterious marine life</tspan>
    </text>
  </g>
</svg>
