<?xml version='1.0' encoding='utf-8'?>
<svg xmlns="http://www.w3.org/2000/svg" width="1920" height="1080" viewBox="0 0 1920 1080" data-theme="dark">
  <style>
        @font-face {
            font-family: 'Inter';
            src: url('assets/fonts/Inter-Regular.ttf') format('truetype');
            font-weight: 400;
            font-style: normal;
            font-display: swap;
        }
        @font-face {
            font-family: 'Inter';
            src: url('assets/fonts/Inter-Bold.ttf') format('truetype');
            font-weight: 600;
            font-style: normal;
            font-display: swap;
        }
        @font-face {
            font-family: 'Inter';
            src: url('assets/fonts/Inter-Bold.ttf') format('truetype');
            font-weight: 800;
            font-style: normal;
            font-display: swap;
        }
        
:root {
    --background: #0f172a;
    --panel: #1e293b;
    --primary-text: #f1f5f9;
    --muted-text: #94a3b8;
    --inverse-text: #0f172a;
    --border: #334155;
    --shadow-color: #000000;
    --icon-pad-bg: #1e293b;
    --art-glow: #7dd3fc;
    --art-glow-opacity: 0.18;
    --art-sheen: #ffffff;
    --art-sheen-opacity: 0.18;
    --art-shadow: #000000;
    --art-shadow-opacity: 0.28;
    --art-muted-line: #64748b;
    --art-panel-tint: #1e293b;
    --font-family: 'Inter', 'Segoe UI', 'Kalam', Roboto, Helvetica, Arial, sans-serif;
    --radius-xl: 16px;
    --font-family-headline: 'Inter', 'Segoe UI', 'Kalam', Roboto, Helvetica, Arial, sans-serif;
    --font-family-body: 'Inter', 'Segoe UI', 'Kalam', Roboto, Helvetica, Arial, sans-serif;
    --font-heading: 'Inter', 'Segoe UI', 'Kalam', Roboto, Helvetica, Arial, sans-serif;
    --font-body: 'Inter', 'Segoe UI', 'Kalam', Roboto, Helvetica, Arial, sans-serif;
    --font-size-h1: 56px;
    --font-size-h2: 40px;
    --font-size-h3: 28px;
    --font-size-body: 24px;
    --font-size-caption: 18px;
    --secondary-text: var(--muted-text);
    --panel-border: var(--border);
    --font-weight-normal: 400;
    --font-weight-medium: 500;
    --font-weight-semibold: 600;
    --font-weight-bold: 700;
    --spacing-gutter-pct: 0.07;
    --spacing-top-pct: 0.15;
    --spacing-bottom-pct: 0.07;
    --spacing-title-y-pct: 0.055;
    --accent-1: #22d3ee;
    --accent-2: #f472b6;
    --accent-3: #facc15;
    --accent-4: #a3e635;
    --accent-5: #fb923c;
    --accent-6: #c084fc;
}
:root[data-theme="dark"] {
    --background: #0f172a;
    --panel: #1e293b;
    --primary-text: #f1f5f9;
    --muted-text: #94a3b8;
    --inverse-text: #0f172a;
    --border: #334155;
    --shadow-color: #000000;
    --icon-pad-bg: #1e293b;
    --art-glow: #7dd3fc;
    --art-glow-opacity: 0.18;
    --art-sheen: #ffffff;
    --art-sheen-opacity: 0.18;
    --art-shadow: #000000;
    --art-shadow-opacity: 0.28;
    --art-muted-line: #64748b;
    --art-panel-tint: #1e293b;
    --accent-1: #22d3ee;
    --accent-2: #f472b6;
    --accent-3: #facc15;
    --accent-4: #a3e635;
    --accent-5: #fb923c;
    --accent-6: #c084fc;
}
:root[data-theme="light"] {
    --background: #f8fafc;
    --panel: #ffffff;
    --primary-text: #0f172a;
    --muted-text: #64748b;
    --inverse-text: #ffffff;
    --border: #e2e8f0;
    --shadow-color: #000000;
    --icon-pad-bg: #1e293b;
    --art-glow: #0891b2;
    --art-glow-opacity: 0.10;
    --art-sheen: #ffffff;
    --art-sheen-opacity: 0.34;
    --art-shadow: #0f172a;
    --art-shadow-opacity: 0.14;
    --art-muted-line: #94a3b8;
    --art-panel-tint: #f1f5f9;
    --accent-1: #0891b2;
    --accent-2: #db2777;
    --accent-3: #ca8a04;
    --accent-4: #65a30d;
    --accent-5: #ea580c;
    --accent-6: #9333ea;
}</style>
  <rect x="0" y="0" width="1.92E+3" height="1.08E+3" fill="#252a34" stroke="none" id="programmatic_background"/>
  <line id="HEADER_DECOR" x1="960.0" x2="1080.0" y1="95.0" y2="95.0" stroke="var(--accent-1)" stroke-width="6" stroke-linecap="round"/>
  <defs>
    <pattern id="svg4f986178-napkin-hatch" patternUnits="userSpaceOnUse" width="12" height="12">
      <path d="M -3 12 L 12 -3 M 0 15 L 15 0" fill="none" stroke="var(--primary-text)" stroke-width="1" stroke-opacity="0.05"/>
    </pattern>
    <filter id="svg4f986178-shadow" x="-30%" y="-30%" width="160%" height="160%">
      <feDropShadow dx="0" dy="2" stdDeviation="3" flood-color="#000000" flood-opacity="0.08"/>
      <feDropShadow dx="0" dy="6" stdDeviation="10" flood-color="#000000" flood-opacity="0.12"/>
    </filter>
    <radialGradient id="svg4f986178-universal-edge-vignette" cx="50%" cy="50%" r="72%">
      <stop offset="0%" stop-color="var(--background)" stop-opacity="0"/>
      <stop offset="72%" stop-color="var(--background)" stop-opacity="0.12"/>
      <stop offset="100%" stop-color="var(--primary-text)" stop-opacity="0.08"/>
    </radialGradient>
    <linearGradient id="svg4f986178-universal-surface-sheen" x1="0%" y1="0%" x2="100%" y2="100%">
      <stop offset="0%" stop-color="var(--art-sheen)" stop-opacity="var(--art-sheen-opacity)"/>
      <stop offset="46%" stop-color="var(--art-sheen)" stop-opacity="0.035"/>
      <stop offset="100%" stop-color="var(--art-panel-tint)" stop-opacity="0.14"/>
    </linearGradient>
    <radialGradient id="svg4f986178-universal-icon-aura" cx="50%" cy="42%" r="64%">
      <stop offset="0%" stop-color="var(--art-glow)" stop-opacity="var(--art-glow-opacity)"/>
      <stop offset="100%" stop-color="var(--background)" stop-opacity="0"/>
    </radialGradient>
    <radialGradient id="svg4f986178-venn-center-glow" cx="50%" cy="50%" r="60%">
      <stop offset="0%" stop-color="var(--art-glow)" stop-opacity="var(--art-glow-opacity)"/>
      <stop offset="100%" stop-color="var(--background)" stop-opacity="0"/>
    </radialGradient>
    <linearGradient id="svg4f986178-venn-label-sheen" x1="0%" y1="0%" x2="100%" y2="100%">
      <stop offset="0%" stop-color="var(--inverse-text)" stop-opacity="0.14"/>
      <stop offset="100%" stop-color="var(--background)" stop-opacity="0.12"/>
    </linearGradient>
    <filter id="svg4f986178-text-glow" x="-20%" y="-20%" width="140%" height="140%">
      <feDropShadow dx="0" dy="0" stdDeviation="2" flood-color="#000000" flood-opacity="0.4"/>
    </filter>
    <marker id="svg4f986178-arrowhead" markerWidth="10" markerHeight="7" refX="9" refY="3.5" orient="auto" markerUnits="strokeWidth">
      <polygon points="0 0, 10 3.5, 0 7" fill="var(--muted-text)" opacity="0.6"/>
    </marker>
  </defs>
  <rect width="100%" height="100%" fill="var(--background)" id="CANVAS_BG"/>
  <rect width="100%" height="100%" fill="url(#svg4f986178-napkin-hatch)"/>
  <rect id="UNIVERSAL_EDGE_VIGNETTE" width="100%" height="100%" fill="url(#svg4f986178-universal-edge-vignette)" opacity="0.62"/>
  <text id="TITLE" x="960.0" y="59" text-anchor="middle" font-weight="800" font-size="56" fill="#f1f5f9" style="font-size: 60px; font-family: Inter, Segoe UI, Kalam, Roboto, Helvetica, Arial, sans-serif; font-weight: 700; letter-spacing:-1.2px;" data-final-font-size="60">
    <tspan x="960.0" dy="68.00px">Plausible Explanations for Sightings</tspan>
  </text>
  <rect id="TITLE_FRAME" x="134" y="35" width="1652" height="80" fill="none"/>
  <g id="DIAGRAM_MAIN" transform="translate(960, 620)">
    <!-- Circle backgrounds -->
    <circle id="ITEM_1_BG" cx="0" cy="-130" r="200" fill="var(--accent-1)" fill-opacity="0.35" stroke="var(--border)" stroke-width="2"/>
    <circle id="ITEM_2_BG" cx="130" cy="0" r="200" fill="var(--accent-2)" fill-opacity="0.35" stroke="var(--border)" stroke-width="2"/>
    <circle id="ITEM_3_BG" cx="0" cy="130" r="200" fill="var(--accent-3)" fill-opacity="0.35" stroke="var(--border)" stroke-width="2"/>
    <circle id="ITEM_4_BG" cx="-130" cy="0" r="200" fill="var(--accent-4)" fill-opacity="0.35" stroke="var(--border)" stroke-width="2"/>
    <!-- ITEM 1 - Top (y=-260 to be in non-overlap area) -->
    <circle id="ITEM_1_PAD" cx="0" cy="-260" r="50" fill="var(--icon-pad-bg)" stroke="var(--primary-text)" opacity="0.9" fill-opacity="0.9" stroke-width="2"/>
    <circle id="ITEM_1_PAD_INNER" cx="0" cy="-260" r="39.00" fill="var(--accent-1)" fill-opacity="0.22"/>
    <circle cx="0" cy="-260" r="40" fill="none" stroke="var(--accent-1)" stroke-width="3" stroke-dasharray="6 4"/>
    <g id="ITEM_1_ICON" transform="translate(-30, -290)" data-icon-size="60">
      <g transform="translate(-14.571428571428571,-29.892857142857142) scale(2.7857142857142856)">
        <path d="M27.28 14.0025C27.08 13.9825 26.89 14.0825 26.78 14.2525L23.73 19.3625L27.28 20.0625L29.05 14.8125C29.16 14.4925 28.94 14.1525 28.6 14.1225L27.28 14.0025Z" fill="#FF822D"/>
        <path d="M14.52 13.5182L10.96 16.5382L22.88 18.6382L22.9 18.4682C22.97 17.6982 22.62 16.9582 21.99 16.5482L17.1 13.3482C16.8 13.1482 16.47 13.0382 16.13 13.0082C15.55 12.9582 14.97 13.1382 14.52 13.5182Z" fill="#D3D3D3"/>
        <path d="M14.46 13.5483L10.96 16.5383L14.52 17.1683L16.68 15.3283C16.95 15.0083 16.88 14.5183 16.53 14.2883L15.88 13.8683L14.94 13.2583H14.93C14.77 13.3283 14.6 13.4283 14.46 13.5483Z" fill="#26EAFC"/>
        <path d="M17.66 15.8982L15.89 17.4082L21.73 18.4382L21.74 18.3082C21.78 17.9182 21.6 17.5482 21.28 17.3382L18.95 15.8182C18.8 15.7182 18.63 15.6582 18.46 15.6482C18.19 15.6182 17.89 15.7082 17.66 15.8982Z" fill="#26EAFC"/>
        <path d="M3.70999 19.3482C6.60067 24.225 11.3272 27.1343 16.3681 27.1343H25.7908C27.87 27.1343 29.6044 25.3971 30 23.0738L3 18.1343L3.70999 19.3482Z" fill="#FF822D"/>
        <path d="M1.99999 16.1343L30 21.1343C29.8496 20.1545 29.128 19.3707 28.1759 19.2214L3.37985 15.1529C3.30969 15.1436 3.24955 15.1343 3.18941 15.1343C2.46778 15.1343 1.94988 15.4344 1.99999 16.1343Z" fill="#FF822D"/>
        <path d="M2.20028 16.8343L3.24177 18.5343L30 23.1343C30 23.1343 30 22.6243 30 22.2843V21.5143C30 21.3743 30 21.1343 30 21.1343L2 16.1343C2.01001 16.3843 2.0701 16.6143 2.20028 16.8343Z" fill="#D3D3D3"/>
        <path d="M30 23C28.2506 23 28.2506 24.3067 26.4913 24.3067C24.7419 24.3067 24.7419 23 22.9825 23C21.2331 23 21.2331 24.3067 19.4838 24.3067C17.7344 24.3067 17.7344 23 15.985 23C14.2356 23 14.2356 24.3067 12.4863 24.3067C10.7369 24.3067 10.7369 23 8.9875 23C7.23813 23 7.23813 24.3067 5.49875 24.3067C3.74938 24.3067 3.74938 23 2 23V30H29.99L30 23Z" fill="#00A6ED"/>
      </g>
    </g>
    <rect id="ITEM_1_TEXT_BG" x="-208.0" y="-226.0" width="416.0" height="190.0" rx="16" fill="var(--panel)" fill-opacity="0.94" stroke="var(--primary-text)" stroke-opacity="0.12" stroke-width="1.5"/>
    <rect x="-208.0" y="-226.0" width="416.0" height="190.0" rx="16" fill="url(#svg4f986178-venn-label-sheen)" opacity="0.85"/>
    <text id="ITEM_1_HEAD" x="0.0" y="-210.0" text-anchor="middle" font-weight="bold" font-size="34" fill="var(--accent-1)" data-bg-id="ITEM_1_TEXT_BG" fill-opacity="1.0" stroke="none" style="font-size: 30px; font-family: Inter, Segoe UI, Kalam, Roboto, Helvetica, Arial, sans-serif; font-weight: 700; letter-spacing:-0.4px;" data-final-font-size="30">
      <tspan x="0.0" dy="31.25px">Boat Wakes</tspan>
    </text>
    <rect id="ITEM_1_HEAD_FRAME" x="-170" y="-210" width="340" height="46" fill="none"/>
    <text id="ITEM_1_BODY" x="0.0" y="-152.0" text-anchor="middle" font-size="20" fill="var(--primary-text)" data-bg-id="ITEM_1_TEXT_BG" style="font-size: 26px; font-family: Inter, Segoe UI, Kalam, Roboto, Helvetica, Arial, sans-serif; font-weight: 400;" data-final-font-size="26">
      <tspan x="0.0" dy="28.84px">Long waves create the illusion</tspan>
      <tspan x="0.0" dy="29.90px">of moving humps</tspan>
    </text>
    <rect id="ITEM_1_BODY_FRAME" x="-190" y="-152" width="380" height="100" fill="none"/>
    <!-- ITEM 2 - Right (x=260 to be in non-overlap area) -->
    <circle id="ITEM_2_PAD" cx="260" cy="0" r="50" fill="var(--icon-pad-bg)" stroke="var(--primary-text)" opacity="0.9" fill-opacity="0.9" stroke-width="2"/>
    <circle id="ITEM_2_PAD_INNER" cx="260" cy="0" r="39.00" fill="var(--accent-2)" fill-opacity="0.22"/>
    <circle cx="260" cy="0" r="40" fill="none" stroke="var(--accent-2)" stroke-width="3" stroke-dasharray="6 4"/>
    <g id="ITEM_2_ICON" transform="translate(230, -30)" data-icon-size="60">
      <g transform="translate(-14.571428571428571,-19.794642857142858) scale(2.7857142857142856)">
        <path d="M16.4063 5.86579C13.7196 5.86579 12.6138 8.38265 12.5642 10.6875H11.6562C7.71325 10.6875 4.386 13.3238 3.34101 16.93C3.24997 16.9043 3.15393 16.8906 3.05469 16.8906C2.4722 16.8906 2 17.3628 2 17.9453C2 18.4103 2.30089 18.805 2.71858 18.9453C2.30089 19.0856 2 19.4803 2 19.9453C2 20.5278 2.4722 21 3.05469 21C3.08932 21 3.12355 20.9983 3.15732 20.9951C3.92819 24.986 7.44024 28 11.6563 28H13.4398C13.476 28.965 13.9493 29.9973 15.071 29.9973H17.2755C17.3817 30.0155 17.5836 29.9508 17.5411 29.5463C17.4984 29.1401 17.31 28.3105 16.3079 28H16.3438C20.7284 28 24.3516 24.7401 24.9219 20.5117V24.688C24.9219 26.9377 29.8438 29.3129 29.8438 27.1254V22.6252C29.8438 21.42 27.8051 19.365 26.5403 19.3439C27.8051 19.3227 29.8438 17.2678 29.8438 16.0625V11.5623C29.8438 9.37484 24.9219 11.75 24.9219 13.9998V18.1758C24.4203 14.4568 21.5569 11.4869 17.8911 10.8254C21.509 10.5504 22.1007 8.05045 22.2188 6.92694C22.3188 5.97513 21.8438 5.82292 21.5938 5.86579H16.4063Z" fill="#00A6ED"/>
        <path d="M11.7261 13.8039C11.9035 13.5922 12.2189 13.5644 12.4305 13.7418C15.4796 16.2969 15.6411 20.7905 12.4726 24.1405C12.2829 24.3411 11.9664 24.3499 11.7658 24.1601C11.5652 23.9704 11.5564 23.6539 11.7461 23.4533C14.5777 20.4595 14.3329 16.6406 11.7882 14.5082C11.5766 14.3309 11.5488 14.0155 11.7261 13.8039Z" fill="#0074BA"/>
        <path d="M9.07812 17.5C9.07812 17.8365 8.8053 18.1094 8.46875 18.1094C8.1322 18.1094 7.85938 17.8365 7.85938 17.5C7.85938 17.1635 8.1322 16.8906 8.46875 16.8906C8.8053 16.8906 9.07812 17.1635 9.07812 17.5Z" fill="#1C1C1C"/>
      </g>
    </g>
    <rect id="ITEM_2_TEXT_BG" x="352.0" y="-66.0" width="416.0" height="202.0" rx="16" fill="var(--panel)" fill-opacity="0.94" stroke="var(--primary-text)" stroke-opacity="0.12" stroke-width="1.5"/>
    <rect x="352.0" y="-66.0" width="416.0" height="202.0" rx="16" fill="url(#svg4f986178-venn-label-sheen)" opacity="0.85"/>
    <text id="ITEM_2_HEAD" x="370.0" y="-50.0" text-anchor="start" font-weight="bold" font-size="36" fill="var(--accent-2)" data-bg-id="ITEM_2_TEXT_BG" fill-opacity="1.0" stroke="none" style="font-size: 30px; font-family: Inter, Segoe UI, Kalam, Roboto, Helvetica, Arial, sans-serif; font-weight: 700; letter-spacing:-0.4px;" data-final-font-size="30">
      <tspan x="370.0" dy="33.25px">Fish Activity</tspan>
    </text>
    <rect id="ITEM_2_HEAD_FRAME" x="370" y="-50" width="220" height="50" fill="none"/>
    <text id="ITEM_2_BODY" x="370.0" y="0.0" text-anchor="start" font-size="20" fill="var(--primary-text)" data-bg-id="ITEM_2_TEXT_BG" style="font-size: 26px; font-family: Inter, Segoe UI, Kalam, Roboto, Helvetica, Arial, sans-serif; font-weight: 400;" data-final-font-size="26">
      <tspan x="370.0" dy="32.84px">Schools of fish create unusual</tspan>
      <tspan x="370.0" dy="29.90px">surface disturbances</tspan>
    </text>
    <rect id="ITEM_2_BODY_FRAME" x="370" y="0" width="380" height="120" fill="none"/>
    <!-- ITEM 3 - Bottom (y=260 to be in non-overlap area) -->
    <circle id="ITEM_3_PAD" cx="0" cy="220" r="50" fill="var(--icon-pad-bg)" stroke="var(--primary-text)" opacity="0.9" fill-opacity="0.9" stroke-width="2"/>
    <circle id="ITEM_3_PAD_INNER" cx="0" cy="220" r="39.00" fill="var(--accent-3)" fill-opacity="0.22"/>
    <circle cx="0" cy="220" r="40" fill="none" stroke="var(--accent-3)" stroke-width="3" stroke-dasharray="6 4"/>
    <g id="ITEM_3_ICON" transform="translate(-30, 190)" data-icon-size="60">
      <g transform="translate(-9.0,-9.0) scale(5.571428571428571)" vector-effect="non-scaling-stroke" stroke-width="2.43" stroke-linecap="round" stroke-linejoin="round" stroke-opacity="1.0">
        <path id="Ellipse 936" fill="none" d="M4.5 8c0 1.933 -0.89543 3.5 -2 3.5S0.5 9.933 0.5 8s0.89543 -3.5 2 -3.5 2 1.567 2 3.5Z" vector-effect="non-scaling-stroke" stroke="#f1f5f9"/>
        <path id="Ellipse 939" stroke="#f1f5f9" d="M4.5 8c0 1.933 -0.89543 3.5 -2 3.5S0.5 9.933 0.5 8s0.89543 -3.5 2 -3.5 2 1.567 2 3.5Z" vector-effect="non-scaling-stroke" fill="none"/>
        <path id="Ellipse 937" fill="none" d="M11.5 11.5c1.1046 0 2 -1.567 2 -3.5s-0.8954 -3.5 -2 -3.5h-9c1.10457 0 2 1.567 2 3.5s-0.89543 3.5 -2 3.5h9Z" vector-effect="non-scaling-stroke" stroke="#f1f5f9"/>
        <path id="Ellipse 938" stroke="#f1f5f9" d="M11.5 11.5c1.1046 0 2 -1.567 2 -3.5s-0.8954 -3.5 -2 -3.5h-9c1.10457 0 2 1.567 2 3.5s-0.89543 3.5 -2 3.5h9Z" vector-effect="non-scaling-stroke" fill="none"/>
        <path id="Vector 2246" stroke="#f1f5f9" d="m8.5 7 4.8012 0" vector-effect="non-scaling-stroke" fill="none"/>
        <path id="Vector 2247" stroke="#f1f5f9" d="M4.5 9.5H7" vector-effect="non-scaling-stroke" fill="none"/>
        <path id="Vector 2249" stroke="#f1f5f9" d="m7.5 4.5 -2 -2" vector-effect="non-scaling-stroke" fill="none"/>
      </g>
    </g>
    <rect id="ITEM_3_TEXT_BG" x="-208.0" y="256.0" width="416.0" height="202.0" rx="16" fill="var(--panel)" fill-opacity="0.94" stroke="var(--primary-text)" stroke-opacity="0.12" stroke-width="1.5"/>
    <rect x="-208.0" y="256.0" width="416.0" height="202.0" rx="16" fill="url(#svg4f986178-venn-label-sheen)" opacity="0.85"/>
    <text id="ITEM_3_HEAD" x="0.0" y="272.0" text-anchor="middle" font-weight="bold" font-size="36" fill="var(--accent-3)" data-bg-id="ITEM_3_TEXT_BG" fill-opacity="1.0" stroke="none" style="font-size: 30px; font-family: Inter, Segoe UI, Kalam, Roboto, Helvetica, Arial, sans-serif; font-weight: 700; letter-spacing:-0.4px;" data-final-font-size="30">
      <tspan x="0.0" dy="32.25px">Floating Debris</tspan>
    </text>
    <rect id="ITEM_3_HEAD_FRAME" x="-140" y="272" width="280" height="48" fill="none"/>
    <text id="ITEM_3_BODY" x="0.0" y="322.0" text-anchor="middle" font-size="20" fill="var(--primary-text)" data-bg-id="ITEM_3_TEXT_BG" style="font-size: 26px; font-family: Inter, Segoe UI, Kalam, Roboto, Helvetica, Arial, sans-serif; font-weight: 400;" data-final-font-size="26">
      <tspan x="0.0" dy="26.86px">Submerged logs move</tspan>
      <tspan x="0.0" dy="29.90px">independently with shifting</tspan>
      <tspan x="0.0" dy="29.90px">lake currents</tspan>
    </text>
    <rect id="ITEM_3_BODY_FRAME" x="-190" y="322" width="380" height="120" fill="none"/>
    <!-- ITEM 4 - Left (x=-260 to be in non-overlap area) -->
    <circle id="ITEM_4_PAD" cx="-260" cy="0" r="50" fill="var(--icon-pad-bg)" stroke="var(--primary-text)" opacity="0.9" fill-opacity="0.9" stroke-width="2"/>
    <circle id="ITEM_4_PAD_INNER" cx="-260" cy="0" r="39.00" fill="var(--accent-4)" fill-opacity="0.22"/>
    <circle cx="-260" cy="0" r="40" fill="none" stroke="var(--accent-4)" stroke-width="3" stroke-dasharray="6 4"/>
    <g id="ITEM_4_ICON" transform="translate(-290, -30)" data-icon-size="60">
      <g transform="translate(-16.22222222222222,-16.22222222222222) scale(3.8518518518518516)" vector-effect="non-scaling-stroke" stroke-width="2.43" stroke-linecap="round" stroke-linejoin="round" stroke-opacity="1.0">
        <path d="M3 7V5c0-1.1.9-2 2-2h2" vector-effect="non-scaling-stroke" fill="none" stroke="#f1f5f9"/>
        <path d="M17 3h2c1.1 0 2 .9 2 2v2" vector-effect="non-scaling-stroke" fill="none" stroke="#f1f5f9"/>
        <path d="M21 17v2c0 1.1-.9 2-2 2h-2" vector-effect="non-scaling-stroke" fill="none" stroke="#f1f5f9"/>
        <path d="M7 21H5c-1.1 0-2-.9-2-2v-2" vector-effect="non-scaling-stroke" fill="none" stroke="#f1f5f9"/>
        <rect width="7" height="5" x="7" y="7" rx="1" vector-effect="non-scaling-stroke" fill="none" stroke="#f1f5f9"/>
        <rect width="7" height="5" x="10" y="12" rx="1" vector-effect="non-scaling-stroke" fill="none" stroke="#f1f5f9"/>
      </g>
    </g>
    <rect id="ITEM_4_TEXT_BG" x="-768.0" y="-66.0" width="416.0" height="202.0" rx="16" fill="var(--panel)" fill-opacity="0.94" stroke="var(--primary-text)" stroke-opacity="0.12" stroke-width="1.5"/>
    <rect x="-768.0" y="-66.0" width="416.0" height="202.0" rx="16" fill="url(#svg4f986178-venn-label-sheen)" opacity="0.85"/>
    <text id="ITEM_4_HEAD" x="-370.0" y="-50.0" text-anchor="end" font-weight="bold" font-size="36" fill="var(--accent-4)" data-bg-id="ITEM_4_TEXT_BG" fill-opacity="1.0" stroke="none" style="font-size: 30px; font-family: Inter, Segoe UI, Kalam, Roboto, Helvetica, Arial, sans-serif; font-weight: 700; letter-spacing:-0.4px;" data-final-font-size="30">
      <tspan x="-370.0" dy="33.25px">Perceptual Bias</tspan>
    </text>
    <rect id="ITEM_4_HEAD_FRAME" x="-590" y="-50" width="220" height="50" fill="none"/>
    <text id="ITEM_4_BODY" x="-370.0" y="0.0" text-anchor="end" font-size="20" fill="var(--primary-text)" data-bg-id="ITEM_4_TEXT_BG" style="font-size: 26px; font-family: Inter, Segoe UI, Kalam, Roboto, Helvetica, Arial, sans-serif; font-weight: 400;" data-final-font-size="26">
      <tspan x="-370.0" dy="26.86px">Observers connect separate</tspan>
      <tspan x="-370.0" dy="29.90px">features into a single</tspan>
      <tspan x="-370.0" dy="29.90px">monster shape</tspan>
    </text>
    <rect id="ITEM_4_BODY_FRAME" x="-750" y="0" width="380" height="120" fill="none"/>
  </g>
</svg>
